<?xml version="1.0" encoding="UTF-8" standalone="no"?>
<!-- Created with Inkscape (http://www.inkscape.org/) -->

<svg
   xmlns:dc="http://purl.org/dc/elements/1.1/"
   xmlns:cc="http://creativecommons.org/ns#"
   xmlns:rdf="http://www.w3.org/1999/02/22-rdf-syntax-ns#"
   xmlns:svg="http://www.w3.org/2000/svg"
   xmlns="http://www.w3.org/2000/svg"
   version="1.1"
   width="1680"
   height="1050"
   id="svg3422">
  <metadata
     id="metadata3428">
    <rdf:RDF>
      <cc:Work
         rdf:about="">
        <dc:format>image/svg+xml</dc:format>
        <dc:type
           rdf:resource="http://purl.org/dc/dcmitype/StillImage" />
        <dc:title></dc:title>
      </cc:Work>
    </rdf:RDF>
  </metadata>
  <defs
     id="defs3426" />
  <g
     transform="translate(-181.577,162.1271)"
     id="g3434"
     style="fill:#000000">
    <path
       d="M 876.18948,885.6235 C 887.29286,864.65497 946.08134,768.56633 1003.8285,677 c 40.4095,-64.075 73.576,-116.63427 73.7034,-116.79839 0.1273,-0.16411 3.1748,-0.16411 6.772,0 l 6.5405,0.29839 -16.4222,25.84227 C 1065.39,600.55551 1058,612.37957 1058,612.61795 c 0,1.52777 7.2437,-3.90362 15.6583,-11.74074 5.5204,-5.14151 12.0371,-10.19623 14.8417,-11.51197 5.3646,-2.51677 14.1058,-3.18179 17.5554,-1.3356 5.3586,2.86785 6.4748,14.01526 2.5241,25.20886 -1.308,3.70618 -11.8494,23.52199 -23.4252,44.03514 -11.5759,20.51315 -21.6025,39.37326 -22.2813,41.91136 -1.0788,4.0335 -1.016,4.94783 0.4987,7.2595 3.7162,5.6717 11.5458,5.56182 25.7748,-0.36173 13.6188,-5.66949 36.5639,-22.3123 41.5209,-30.11633 3.8242,-6.02071 5.2105,-7.1076 8.6416,-6.7754 3.1641,0.30635 3.1898,0.35327 3.0532,5.56196 -0.1092,4.16247 -0.9582,6.65366 -4.0898,12 -4.366,7.45393 -7.2724,14.30091 -7.2724,17.13238 0,1.0147 0.9327,3.03059 2.0726,4.47976 3.0971,3.93733 7.889,3.53919 17.9378,-1.49037 6.56,-3.28342 10.4807,-6.28812 19.2125,-14.7242 6.8479,-6.61588 11.8937,-12.42065 13.427,-15.44644 1.351,-2.66611 15.0976,-23.82772 30.548,-47.0258 l 28.0916,-42.17833 6.8553,-0.29381 c 3.7703,-0.16159 6.8552,0.11692 6.8552,0.61892 0,0.502 -14.4416,22.68421 -32.0925,49.29381 -40.0528,60.38184 -42.6079,65.1784 -37.9044,71.15795 6.6658,8.47415 28.9267,-4.33221 47.4147,-27.27687 2.8806,-3.575 17.529,-25.625 32.5521,-49 15.023,-23.375 27.8514,-43.08475 28.5075,-43.79945 0.809,-0.88119 3.3323,-1.20306 7.8397,-1 l 6.6467,0.29945 -4.1165,6.5 c -2.2641,3.575 -10.6521,17.3 -18.6401,30.5 -12.8768,21.27877 -19.2642,31.1535 -37.4924,57.96231 -10.4872,15.42399 -9.4341,26.91329 2.5912,28.26871 7.896,0.88999 17.9716,-5.07899 40.7372,-24.13342 4.6239,-3.87013 7.3907,-5.56367 8.0358,-4.9186 0.9642,0.96419 -1.0211,2.75132 -21.2396,19.11958 -16.947,13.71979 -31.3361,16.62408 -39.4904,7.97074 -4.0067,-4.25195 -5.349,-8.50212 -5.349,-16.93729 l 0,-6.86952 -6.6306,7.02875 c -3.6468,3.86581 -9.7599,9.10915 -13.5847,11.65185 -6.7551,4.49082 -19.3798,9.35689 -24.2757,9.35689 -7.6568,0 -10.8942,-5.71202 -10.3657,-18.28881 l 0.3567,-8.48905 -6.5,6.75943 c -8.4078,8.74339 -18.6535,15.31568 -28.3005,18.15388 -9.7369,2.86462 -14.0798,2.06011 -16.8417,-3.11985 -2.0534,-3.85117 -2.537,-14.16046 -0.9276,-19.7722 0.5116,-1.78387 0.7772,-3.2434 0.5902,-3.2434 -0.187,0 -4.4239,3.06669 -9.4152,6.81486 -20.4187,15.33327 -44.102,24.28433 -57.5686,21.75799 -5.6371,-1.05753 -7.5366,-3.59856 -7.5366,-10.08203 0,-6.839 4.1058,-15.04883 28.5017,-56.99082 9.2775,-15.95 18.0971,-31.925 19.5993,-35.5 5.7025,-13.57175 4.6817,-21.02256 -2.8741,-20.97804 -13.4379,0.0792 -34.4727,20.33407 -60.7295,58.47804 -16.9835,24.67235 -88.91384,140.73368 -116.50376,187.9816 l -28.60228,48.98159 -3.94568,0.64162 c -2.17012,0.3529 -6.06855,0.86675 -8.66316,1.1419 -4.55492,0.48304 -4.67873,0.42711 -3.59304,-1.62321 z M 770.17332,713.51596 c -8.92087,-2.78397 -15.08925,-8.74899 -19.9378,-19.2805 -3.05039,-6.62572 -4.14749,-19.85961 -2.42363,-29.23546 0.55618,-3.025 0.88314,-5.63039 0.72659,-5.78975 -0.15655,-0.15936 -7.07649,4.11564 -15.37763,9.5 -59.92785,38.87094 -66.55761,42.68067 -77.55034,44.56364 -11.39136,1.95126 -18.65721,-2.13157 -22.27843,-12.51873 -1.45313,-4.16819 -1.81056,-8.04748 -1.72804,-18.75516 0.0572,-7.425 0.58345,-15.1875 1.1694,-17.25 0.58594,-2.0625 0.80189,-3.75 0.47989,-3.75 -1.16991,0 -16.29892,9.72474 -41.40639,26.61552 -27.52875,18.51967 -34.60718,22.56605 -43.55013,24.89539 -7.53738,1.96324 -11.90616,1.84958 -16.95082,-0.441 -10.50146,-4.7683 -13.77367,-22.97908 -8.79997,-48.97431 4.86435,-25.42363 21.58375,-57.10648 46.48906,-88.0956 16.6167,-20.67579 31.82714,-36.90253 72.4465,-77.28713 39.68553,-39.45616 39.94673,-39.74255 31.40019,-34.42853 -32.30717,20.08779 -72.64294,25.01721 -103.63375,12.66504 -29.65164,-11.8184 -47.55302,-35.69773 -78.03297,-104.0911 -6.53018,-14.65294 -13.93719,-29.95294 -16.46002,-34 C 453.99033,304.5481 412.65861,277.99796 367.5,268.96117 c -15.63202,-3.12816 -41.61719,-3.82619 -55.66883,-1.49541 -77.28431,12.81936 -132.12092,82.00671 -124.85384,157.52811 2.5969,26.98766 9.93235,48.47086 23.63896,69.23096 6.25182,9.46904 23.86526,27.13917 33.38371,33.49117 21.72176,14.49567 42.52999,20.73364 69,20.68506 37.23271,-0.0683 71.47723,-13.1691 92.13196,-35.24652 12.084,-12.91633 18.01439,-24.95865 19.9901,-40.59213 4.87776,-38.59696 -29.89182,-82.21062 -76.62206,-96.11182 -7.02527,-2.08986 -11.88151,-2.78988 -22.13273,-3.19041 -22.47987,-0.87833 -35.42505,3.44333 -47.678,15.91698 -5.92265,6.02932 -6.52208,6.44045 -3.95734,2.71423 4.21711,-6.12688 12.10249,-13.26737 17.88528,-16.19573 19.88852,-10.07141 50.09312,-8.36269 77.26625,4.37106 34.45368,16.14554 57.46966,45.45009 61.32063,78.07504 2.67981,22.70294 -3.85572,40.3086 -21.70409,58.46733 -17.49982,17.80413 -41.67844,29.76326 -71,35.11776 -12.36355,2.25774 -37.09528,2.2269 -48.70981,-0.0607 -46.5934,-9.17724 -85.27467,-43.90968 -100.75589,-90.47009 -10.00984,-30.10501 -9.93707,-68.3818 0.1848,-97.19601 13.13009,-37.3778 42.26429,-69.50124 78.80895,-86.89495 31.55398,-15.01836 64.36875,-19.29896 100.43593,-13.10161 36.84581,6.33113 70.57942,23.83045 97.14077,50.39181 16.42715,16.42714 26.00219,30.69441 44.36421,66.10475 27.40571,52.85072 39.04593,69.02071 57.43442,79.7849 8.43293,4.93645 23.17116,10.06354 33.59662,11.6875 16.79798,2.61659 37.54471,0.37248 55.5,-6.00328 11.47108,-4.07328 16.07913,-6.4279 27.08356,-13.8392 11.7476,-7.91182 19.0506,-14.20178 25.69403,-22.12992 6.99447,-8.34705 16.41694,-14.1906 22.22241,-13.78172 3.55334,0.25026 4.03578,0.59348 4.32047,3.07362 0.76921,6.70144 -9.2189,16.78337 -19.62133,19.80561 -3.36234,0.97687 -5.64771,2.79374 -10.47296,8.32601 -3.39465,3.89207 -25.09566,26.20148 -48.22446,49.57648 -54.14288,54.71923 -69.06513,70.99487 -87.92845,95.90325 -17.81538,23.52461 -32.80415,50.44679 -38.19084,68.59675 -3.53313,11.90455 -4.02381,30.70051 -0.96247,36.86806 3.8137,7.68326 11.90711,9.56427 23.84645,5.54219 8.24938,-2.77901 14.24308,-6.38089 39.74599,-23.8851 40.7273,-27.95366 40.29139,-27.61352 42.10257,-32.85314 13.32118,-38.53741 69.01955,-114.3846 128.88503,-175.5091 9.625,-9.82742 20.2,-19.90988 23.5,-22.40546 8.43066,-6.37558 16.97847,-10.25575 22.59501,-10.25671 8.39801,-10e-4 10.32995,5.31515 7.0104,19.29224 -7.12672,30.00729 -29.13331,63.31673 -68.10533,103.08505 -22.86842,23.33567 -78.00245,72.56127 -97.56033,87.10529 -6.09706,4.53401 -7.35555,6.02192 -9.22473,10.90638 -3.08569,8.06343 -4.47941,17.33591 -4.03725,26.86007 0.63395,13.65528 5.2213,19.73853 14.89073,19.74644 11.55846,0.009 21.18957,-5.06227 64.27797,-33.84872 l 29.84648,-19.93979 8.15352,-16.3604 C 774.09691,600.23034 794.6913,570.02729 830.6697,526.84741 859.73867,491.95994 895.091,454.90537 906.74312,447.11099 918.88204,438.99098 928.70484,436.70484 933,441 c 6.89597,6.89597 -4.3373,39.08195 -23.73277,68 -19.50539,29.08194 -47.2233,58.32929 -94.38641,99.59454 -15.74054,13.77215 -31.9503,27.70995 -36.02168,30.97287 -14.94291,11.97568 -18.99684,19.85711 -18.99684,36.93259 0,17.58638 6.55104,29.87713 17.42654,32.69485 9.93349,2.57366 36.20523,-3.39931 53.76445,-12.22353 11.27538,-5.66633 24.59963,-14.98412 32.19671,-22.51548 5.21592,-5.17081 6.75,-6.23403 6.75,-4.67823 0,2.11025 -14.06202,14.94784 -25.6578,23.42368 -14.23716,10.40654 -34.84364,18.80304 -50.8422,20.7166 -11.5899,1.38625 -17.94774,1.2767 -23.32668,-0.40193 z M 676.5,621.01034 c 40.58531,-36.46042 73.3657,-68.33203 90.39932,-87.89314 23.18095,-26.62059 38.44094,-51.45799 44.53421,-72.48457 3.09063,-10.66514 3.19844,-13.75073 0.56373,-16.13511 -1.74424,-1.57851 -2.50888,-1.66081 -5.92404,-0.6376 -14.61832,4.37975 -51.3221,44.67996 -93.12773,102.25288 C 695.84829,569.65832 677.27142,597.15989 667.76425,613 660.75086,624.68516 652,641.12448 652,642.61464 c 0,0.36248 2.1375,-1.31823 4.75,-3.73489 2.6125,-2.41667 11.5,-10.4579 19.75,-17.86941 z m 123.07687,-6.98673 c 29.79381,-26.8689 68.9986,-65.29018 82.16569,-80.52361 23.08537,-26.70818 36.97567,-48.58309 43.78521,-68.9544 5.20048,-15.55766 4.22684,-22.5462 -2.94146,-21.11311 -17.56329,3.51125 -74.28844,70.08221 -124.79181,146.452 -12.60897,19.06692 -26.17475,41.99465 -29.36533,49.63078 l -1.57233,3.76311 3.89845,-3.38919 c 2.14415,-1.86405 15.11386,-13.50356 28.82158,-25.86558 z m 134.69282,99.56133 c -6.02319,-2.74436 -8.92522,-11.10036 -6.27554,-18.06954 0.73585,-1.93544 -0.68606,-0.9346 -5.47275,3.85209 -10.10148,10.10148 -24.36138,16.14439 -33.40821,14.15737 -9.08099,-1.99452 -13.96042,-16.01021 -11.18159,-32.11805 6.72202,-38.96501 56.30361,-90.80078 89.9064,-93.99391 7.58968,-0.72121 11.77864,1.44902 15.26089,7.90643 l 2.59889,4.81933 3.90111,-6.55186 3.90111,-6.55186 7.2392,-0.0175 7.2392,-0.0175 -3.8283,6.25 c -2.1056,3.4375 -14.10145,22.675 -26.65746,42.75 -25.26699,40.39777 -35.41394,57.08921 -37.26332,61.29705 -1.76769,4.02199 -1.55354,10.18898 0.41041,11.81891 2.3785,1.97399 11.91149,1.50935 18.0854,-0.88149 11.06843,-4.28623 24.9778,-16.10479 39.87989,-33.88528 C 1003.8366,668.10714 1008.5782,663 1009.1419,663 c 1.1691,0 0.4011,1.04496 -10.74913,14.62561 -14.46168,17.61395 -28.06391,29.05053 -40.54988,34.09384 -7.34692,2.96755 -19.11118,3.89853 -23.5732,1.86549 z M 907,707.29423 c 7.92925,-3.81267 21.68491,-18.08798 31.60045,-32.79423 10.04876,-14.90384 35.56426,-55.70545 39.11224,-62.54402 1.4831,-2.85861 2.82219,-7.36084 3.06687,-10.31126 0.37717,-4.54819 0.0878,-5.64889 -2.19966,-8.3674 -3.40033,-4.04106 -7.01513,-4.78484 -13.14308,-2.70435 -22.552,7.6566 -62.01836,58.20103 -74.47397,95.37852 -3.90362,11.65153 -4.03163,19.07064 -0.39185,22.71042 2.22979,2.22978 3.12562,2.48513 6.75,1.92396 2.29845,-0.35588 6.654,-1.83711 9.679,-3.29164 z m 474.5579,-98.19896 c -5.1329,-8.44969 -13.0578,-16.06202 -21.0992,-20.26707 -3.8273,-2.0014 -13.2587,-5.52986 -20.9587,-7.841 -32.2694,-9.68565 -42.3974,-14.63818 -56.2804,-27.52079 -6.0042,-5.57152 -8.8126,-7.54461 -10.2161,-7.17756 -3.109,0.813 -6.6287,-3.70065 -9.0416,-11.59481 -1.9248,-6.2975 -2.1089,-8.44027 -1.4772,-17.19404 0.3969,-5.5 0.7878,-11.27622 0.8685,-12.83604 0.1306,-2.52269 -0.4004,-3.04534 -4.8063,-4.73044 -2.851,-1.09043 -5.1977,-1.49861 -5.5294,-0.96179 -0.6862,1.11032 -2.9102,-0.0863 -9.6274,-5.18001 -2.6895,-2.03955 -7.5901,-5.32552 -10.8901,-7.30214 -3.3,-1.97662 -8.3591,-5.13916 -11.2424,-7.02787 l -5.2423,-3.43402 -1.5077,3.60828 c -1.8729,4.48255 -1.9116,6.36403 -0.1307,6.36403 1.8461,0 5.6231,8.99267 5.6231,13.38833 0,4.80443 -1.8915,8.61167 -4.2785,8.61167 -1.0766,0 -3.495,1.35 -5.3743,3 -1.8792,1.65 -4.1886,3.04768 -5.132,3.10596 -6.575,0.4062 -12.2673,-1.6152 -14.4669,-5.13742 -0.9103,-1.45753 -2.3351,-1.96854 -5.4888,-1.96854 -5.6341,0 -5.5389,1.70387 0.3866,6.91965 4.9515,4.35848 12.0769,7.08035 18.5354,7.08035 4.6968,0 5.1575,2.20273 0.8352,3.9931 -3.5855,1.48515 -9.1609,0.65014 -13.8328,-2.07172 -2.8491,-1.65986 -3.5142,-1.73395 -4.7221,-0.52603 -2.0298,2.02983 1.1482,5.7331 7.7382,9.01702 5.968,2.974 14.6967,3.49329 20.1835,1.20077 6.6139,-2.76348 10.2181,-12.23008 7.6356,-20.05517 -1.4791,-4.48191 -0.8591,-5.33837 2.345,-3.23899 2.2717,1.48852 2.4588,1.46627 2.9335,-0.34905 1.4926,-5.70758 -1.7415,-16.35071 -6.1912,-20.37492 -1.1585,-1.04774 -2.1064,-2.28524 -2.1064,-2.75 0,-3.53483 9.6018,5.17004 13.3997,12.14796 2.0163,3.70472 2.908,7.0364 3.3117,12.37377 0.6717,8.8816 -0.5863,13.29398 -5.7785,20.26738 -8.9466,12.01583 -25.8498,13.39934 -40.5063,3.31541 C 1182.6624,529.29559 1174,514.42566 1174,507.46797 c 0,-0.64296 -2.2425,-2.56301 -4.9832,-4.26677 -6.4494,-4.00915 -9.0082,-8.21186 -9.0131,-14.80332 0,-5.94441 2.8198,-11.00037 7.5162,-13.45617 1.6391,-0.85707 4.7801,-3.29618 6.9801,-5.42025 3.8074,-3.67598 3.8689,-3.82908 1.2766,-3.17934 -3.6288,0.90958 -2.8606,-1.08075 1.5897,-4.11867 7.414,-5.06105 9.707,-9.90907 9.9712,-21.08202 0.088,-3.73178 -0.3706,-4.78183 -3.1909,-7.30178 -2.7959,-2.4981 -3.986,-2.89757 -7.8697,-2.64143 -6.141,0.40502 -8.65,3.63238 -8.7241,11.22174 -0.043,4.39779 0.4026,5.89995 2.3715,7.99745 4.4205,4.70906 11.0757,2.2569 11.0757,-4.0809 0,-2.87551 -1.4359,-3.70572 -3.8269,-2.21257 -3.8908,2.42985 -7.3442,-1.25815 -5.326,-5.68771 1.1154,-2.44793 4.102,-3.16046 7.6081,-1.81505 4.2887,1.64574 5.989,12.12539 2.8339,17.46658 -4.2576,7.20754 -14.3969,5.32922 -16.9278,-3.13589 -0.732,-2.44853 -1.3378,-7.03058 -1.3461,-10.18234 l -0.015,-5.73047 -3.0206,0.35169 c -1.6613,0.19343 -3.2628,-0.0404 -3.559,-0.51953 -0.2961,-0.47917 -0.1276,-0.87122 0.3746,-0.87122 0.5021,0 2.12,-1.11866 3.5953,-2.4859 2.4474,-2.26822 2.6243,-2.92346 2.0195,-7.48246 -0.7839,-5.90969 0.7857,-9.04154 5.5127,-10.99955 2.5889,-1.07233 3.0775,-1.81814 3.0775,-4.69708 0,-1.88229 -1.6455,-7.7902 -3.6566,-13.12868 -2.0111,-5.33848 -4.4114,-12.18133 -5.334,-15.20633 -1.3604,-4.4604 -2.0396,-5.43167 -3.5934,-5.13849 -1.0538,0.19883 -4.1744,0.57194 -6.9346,0.82913 -4.343,0.40468 -5.3863,0.12686 -7.75,-2.06376 -2.2383,-2.07441 -2.7339,-3.39749 -2.7451,-7.32913 -0.015,-5.17944 -0.8371,-9.3024 -1.8529,-9.29005 -0.3484,0.004 -1.6593,1.80424 -2.9133,4 -3.303,5.78396 -6.2201,5.00126 -6.2201,-1.66894 0,-2.24802 0.2962,-2.43262 2.963,-1.84688 2.5878,0.56836 3.0442,0.3276 3.6035,-1.9007 0.3862,-1.53876 -0.2622,-5.43704 -1.6336,-9.82134 -1.2507,-3.99841 -2.3238,-7.71984 -2.3848,-8.26984 -0.4542,-4.09847 -1.873,-9.58277 -2.5944,-10.02864 -1.8683,-1.15467 -4.8766,1.95943 -4.8253,4.99509 0.028,1.66845 -0.9311,6.63355 -2.1318,11.03355 -3.7992,13.9225 -4.1679,15.9122 -3.6665,19.78922 0.6507,5.03085 2.046,6.51106 9.1699,9.72788 3.3,1.49013 6.7703,3.57485 7.7119,4.63271 2.3648,2.65701 4.7881,8.73756 4.7881,12.01424 l 0,2.72828 -3.2582,-3.15796 c -2.2394,-2.17052 -4.9754,-3.52633 -8.75,-4.33607 -6.0969,-1.30792 -9.9918,-4.57152 -9.9918,-8.37228 0,-2.89068 -0.9465,-5.52602 -1.9847,-5.52602 -1.3672,0 -3.3683,16.19217 -3.3449,27.06559 0.017,7.83671 0.5678,12.36008 2.1331,17.51337 2.1491,7.07549 7.2264,15.3528 11.0677,18.04337 3.8681,2.70936 2.5602,3.70767 -3.9643,3.02572 -11.6771,-1.22049 -19.2921,-6.84474 -20.303,-14.99522 -0.3599,-2.90167 0.2807,-5.15414 2.8354,-9.96964 6.0226,-11.35247 5.9031,-16.70566 -0.2638,-11.82344 -2.0215,1.6004 -5.3884,3.3824 -7.4818,3.95999 -4.6681,1.28789 -5.2927,0.27469 -4.0441,-6.55957 1.0361,-5.67112 3.1463,-6.55516 6.8372,-2.86428 1.3934,1.39345 3.1328,2.30357 3.8653,2.02251 2.4494,-0.93996 5.4499,-7.8375 7.1421,-16.4184 0.9219,-4.675 3.0239,-14.01106 4.6712,-20.74679 1.9366,-7.91936 2.7618,-13.30798 2.3353,-15.25 -0.7813,-3.5571 -0.9395,-3.58355 -6.0007,-1.00321 -2.1576,1.1 -4.9527,2 -6.2114,2 -3.2551,0 -2.89,-2.82806 0.4614,-3.57389 5.7158,-1.27203 6.4373,-1.68547 8.3153,-4.7654 2.1993,-3.60686 2.5818,-11.50598 0.8041,-16.60545 -1.0982,-3.15031 -1.2554,-3.22446 -5.4916,-2.5892 -3.5947,0.53905 -4.262,0.39569 -3.7971,-0.81579 0.3102,-0.80838 1.6565,-1.74396 2.9917,-2.07907 2.6483,-0.66469 3.1749,-2.70607 1.135,-4.39911 -0.711,-0.59004 -4.3872,-1.70917 -8.1694,-2.48697 l -6.8766,-1.41416 -4.5074,4.11452 -4.5073,4.11452 2.6766,-3.98213 c 3.4583,-5.1449 3.4067,-7.65545 -0.2011,-9.78661 -4.8092,-2.84088 -13.5882,-13.09791 -16.5321,-19.31548 -3.1729,-6.70134 -4.4642,-17.63632 -2.7938,-23.65792 0.571,-2.05818 0.6497,-3.9822 0.175,-4.2756 -1.3827,-0.85456 -2.9597,6.44623 -2.9657,13.73023 -0.01,7.46711 2.7665,16.36633 6.0154,19.30648 1.0884,0.98505 1.979,2.32329 1.979,2.97386 0,1.10886 5.3427,6.71457 11,11.54152 2.0212,1.72457 2.117,1.98955 0.5,1.38371 -1.1,-0.41214 -5.445,-0.94552 -9.6556,-1.1853 l -7.6557,-0.43596 -4.5002,5.73381 c -2.4752,3.15359 -4.6897,7.02431 -4.9212,8.6016 -0.2315,1.57728 -0.3288,2.86779 -0.2162,2.86779 0.1125,0 1.8202,-0.675 3.7947,-1.5 4.2834,-1.78972 4.994,-1.85885 4.0911,-0.39797 -0.3746,0.60612 -2.2193,1.74474 -4.0993,2.53027 -1.88,0.78552 -3.1521,1.85878 -2.8269,2.38502 0.3252,0.52623 -0.2665,1.87756 -1.315,3.00295 -1.0484,1.12539 -2.7589,3.82606 -3.801,6.00148 -1.0421,2.17542 -2.2322,3.96047 -2.6447,3.96678 -1.1145,0.017 -0.9077,-5.8254 0.2852,-8.05427 0.5693,-1.06384 0.6367,-1.93426 0.1496,-1.93426 -0.4871,0 -2.3209,2.8279 -4.0753,6.28423 -3.4426,6.78259 -5.6316,20.71577 -3.2545,20.71577 0.6297,0 1.145,0.675 1.145,1.5 0,2.02148 -1.337,1.89008 -3.345,-0.32874 -2.1797,-2.40851 -2.0879,-6.14915 0.3682,-15.01236 2.5134,-9.07006 7.521,-19.13754 12.9101,-25.95529 2.2623,-2.86198 3.7652,-5.18178 3.34,-5.15509 -0.4253,0.0267 -3.6148,1.51029 -7.0877,3.2969 -4.702,2.4189 -6.8771,4.25779 -8.5183,7.20148 -1.576,2.82682 -3.8832,4.84762 -8.0981,7.09276 -3.2418,1.72681 -6.711,4.20181 -7.7094,5.5 l -1.8153,2.36034 -0.022,-2.37827 c -0.015,-1.63598 2.0362,-4.36698 6.5729,-8.75 3.6273,-3.50445 5.9898,-6.36733 5.25,-6.36196 -2.0865,0.0152 -11.3572,4.55946 -17.1617,8.41229 -4.3248,2.87065 -5.4444,4.2352 -6.397,7.79691 -0.8419,3.14791 -2.6993,5.79149 -6.8575,9.76004 -3.1365,2.99352 -6.3297,6.81037 -7.0959,8.48188 l -1.3931,3.03911 0.3682,-4 c 0.2025,-2.2 0.7142,-4.7875 1.137,-5.75 0.6627,-1.50832 0.1672,-1.76624 -3.58811,-1.86762 l -4.35699,-0.11762 4.84775,-0.81346 c 2.66625,-0.44741 4.94195,-0.95698 5.05715,-1.13238 0.1151,-0.17541 1.6461,-2.18368 3.4022,-4.46282 1.7561,-2.27915 3.1929,-4.59287 3.1929,-5.1416 0,-0.54872 1.0125,-1.27203 2.25,-1.60735 1.2375,-0.33532 3.8205,-1.92312 5.7399,-3.52846 l 3.4899,-2.91878 -5.6887,0.0511 -5.6887,0.0511 0.4499,3.11892 0.4499,3.11893 -0.9317,-2.81393 C 1009.4741,318.86477 1006,315.99664 1006,319.5 c 0,0.83333 -0.8889,1.5 -2,1.5 -1.3333,0 -2,-0.66667 -2,-2 0,-1.17029 0.6667,-2 1.607,-2 0.8902,0 1.3891,-0.56779 1.1185,-1.27295 -0.3436,-0.8955 0.7366,-1.30205 3.643,-1.37108 2.2723,-0.054 6.2038,-0.43231 8.7366,-0.84076 3.9972,-0.64462 4.8741,-0.45389 6.6431,1.44486 l 2.038,2.18752 5.3569,-2.23726 c 2.9463,-1.23049 5.7394,-2.56869 6.2069,-2.97377 0.4675,-0.40508 -1.5883,-1.44533 -4.5684,-2.31166 -9.2446,-2.68748 -13.3206,-4.67084 -11.703,-5.69463 3.7285,-2.35989 14.1391,-0.30088 18.9511,3.74817 2.929,2.46457 3.3019,2.53224 7.0812,1.28497 4.5204,-1.49189 6.0017,-2.96341 2.9831,-2.96341 -3.7396,0 -11.5614,-3.14978 -15.4538,-6.22314 -3.7379,-2.95133 -4.1073,-3.03063 -11.6954,-2.51053 -5.6589,0.38787 -9.4481,1.30244 -13.6402,3.29228 -5.7216,2.7158 -5.7617,2.76404 -2.8046,3.37175 l 3,0.61653 -4.7123,2.29751 c -4.79895,2.33976 -7.97492,6.29738 -9.18984,11.45159 -0.83447,3.5402 0.0833,5.21348 1.99117,3.63012 1.11789,-0.92777 1.41097,-0.82748 1.41097,0.48283 0,2.23587 -2.37327,2.99684 -4.98578,1.59867 -1.41479,-0.75717 -2.54476,-0.81329 -3.32814,-0.16529 -0.65235,0.5396 -2.37689,0.90833 -3.83232,0.81939 -2.43969,-0.14909 -2.60419,-0.43491 -2.10741,-3.66171 0.82646,-5.36818 3.76461,-10.42556 8.32437,-14.32854 5.0428,-4.31645 9.14608,-6.35458 18.92928,-9.40225 6.7201,-2.09347 7.0153,-2.28418 2.8387,-1.8341 -6.9482,0.74875 -17.16804,5.22241 -22.34938,9.78321 C 986.73143,310.28661 983,317.43914 983,323.40774 c 0,4.56752 1.47838,7.03617 2.30832,3.8545 0.35885,-1.3757 0.48512,-1.28165 0.57568,0.42874 0.12069,2.27949 2.116,4.3553 2.116,2.20137 0,-0.67413 0.23467,-0.99102 0.52148,-0.7042 0.28682,0.28682 0.169,1.47434 -0.26181,2.63894 -0.74963,2.02643 -0.98697,1.94336 -5.52148,-1.93262 C 980.13218,327.66692 978,325.2044 978,324.42219 c 0,-2.02391 -1.01999,-1.77061 -3.94528,0.97979 -6.34084,5.96175 -20.03905,7.30995 -30.33485,2.98562 -6.50511,-2.73221 -7.67924,-3.74374 -7.70456,-6.6376 -0.0227,-2.60005 1.96819,-2.12247 2.08437,0.5 0.0948,2.13955 0.13376,2.12753 0.79385,-0.24475 0.38179,-1.37211 1.48969,-2.64795 2.462,-2.8352 1.54307,-0.29717 1.60563,-0.0807 0.49206,1.7024 -1.10121,1.76331 -0.96156,2.37733 1.02055,4.48719 2.29106,2.43873 8.95357,4.71644 13.32468,4.55531 1.26895,-0.0468 -0.0631,-0.65909 -2.96017,-1.36071 C 946.84362,327.00692 944,324.63251 944,320.84501 944,318.68179 944.47176,318 945.96862,318 c 1.43359,0 1.80781,0.4756 1.37695,1.75 -0.3994,1.18135 -0.0458,1.01887 1.08809,-0.5 0.92386,-1.2375 2.07391,-2.25 2.55566,-2.25 1.54286,0 2.21961,4.04333 0.93568,5.59037 -0.89976,1.08415 -0.93915,1.79548 -0.14348,2.59115 1.5762,1.5762 10.27664,3.6181 12.68034,2.97593 1.89005,-0.50495 1.86033,-0.58731 -0.40908,-1.1336 -2.22405,-0.53538 -2.07692,-0.70004 1.61347,-1.80571 2.88503,-0.86438 4.86703,-2.38017 6.84577,-5.23549 1.5318,-2.21038 2.54233,-4.26163 2.24562,-4.55834 -0.2967,-0.2967 -1.51919,0.83645 -2.71664,2.51811 -1.86891,2.62465 -5.041,4.20277 -5.041,2.50792 0,-3.00299 7.9038,-11.7295 13.16153,-14.53153 2.2045,-1.17485 2.25254,-1.13985 0.83847,0.61105 -0.825,1.02152 1.50477,-0.43411 5.17727,-3.23473 6.48169,-4.94287 12.90578,-7.97987 14.62803,-6.91544 0.4645,0.28705 3.2858,-0.0847 6.2696,-0.8261 2.9838,-0.7414 6.7751,-1.67082 8.4251,-2.06538 2.6646,-0.63716 2.7764,-0.80201 1,-1.47435 -5.6008,-2.11984 -37.96354,2.75398 -45.96144,6.92178 L 966.57712,301 l 2.96144,0.0237 c 2.51501,0.0202 2.0926,0.38102 -2.80213,2.39388 -7.89846,3.24807 -10.59628,5.17578 -11.32896,8.09503 C 954.29473,315.9461 951,314.00667 951,308.91817 c 0,-2.8212 -4.49731,-2.49351 -15.89657,1.15829 -5.28189,1.69207 -11.62843,3.21291 -14.10343,3.37965 -2.475,0.16674 -3.375,0.10737 -2,-0.13193 6.61236,-1.15077 18.84073,-5.0867 32.01172,-10.30356 20.35853,-8.06377 42.41362,-12.65777 62.36068,-12.98952 1.5854,-0.0264 1.6732,-0.27122 0.5729,-1.59708 -4.4883,-5.4081 -24.23535,-9.29929 -23.1953,-4.57069 0.1375,0.62515 -0.2,1.13663 -0.75,1.13663 -0.55,0 -1,-0.65917 -1,-1.46482 0,-2.51785 4.22052,-3.93216 11.8063,-3.95634 6.1762,-0.0197 7.0362,-0.22083 5.5599,-1.30037 -5.9411,-4.34423 -21.90698,-7.7344 -24.86468,-5.27973 C 979.81786,274.39605 979.45646,278 981,278 c 0.55,0 1,-0.675 1,-1.5 0,-0.825 0.708,-1.5 1.57332,-1.5 0.96013,0 1.44198,0.68206 1.23631,1.75 -0.23125,1.20076 -1.27428,1.75 -3.32333,1.75 -2.53025,0 -3.03551,-0.4292 -3.30856,-2.81047 -0.17724,-1.54576 0.21536,-3.45826 0.87245,-4.25 0.65708,-0.79174 0.7796,-1.43953 0.27225,-1.43953 -1.7741,0 -3.32244,2.42333 -3.32244,5.2 0,2.25909 -0.44653,2.8 -2.31144,2.8 -1.27129,0 -3.29629,-0.91753 -4.5,-2.03896 -4.29819,-4.00437 -1.85899,-11.00172 4.38102,-12.56786 3.8669,-0.97053 1.01585,-2.3591 -4.8823,-2.37787 L 963.87457,261 l -3.00074,6.618 c -2.969,6.54798 -2.98049,6.64056 -1.0863,8.75 2.83704,3.15943 3.34829,5.41388 2.19718,9.6888 -3.22752,11.98606 -21.70476,11.25292 -28.01261,-1.11149 -3.40755,-6.67934 -2.03479,-14.65639 3.59445,-20.88729 C 939.6433,261.75931 941,259.21885 941,257.6288 c 0,-6.97401 10.77221,-10.23392 23.36965,-7.07216 2.154,0.54062 2.84956,-0.30427 7.5993,-9.23078 8.29485,-15.58909 15.38506,-25.51039 24.0689,-33.67952 17.46455,-16.42942 38.31845,-27.18556 62.04565,-32.00219 10.8302,-2.19854 22.5352,-3.07007 23.3578,-1.73915 0.8911,1.44181 8.2429,1.41493 9.1381,-0.0334 0.4768,-0.77149 0.9856,-0.61334 1.6087,0.5 0.5012,0.89563 2.0514,1.62842 3.445,1.62842 3.9625,0 17.4033,3.68389 23.8615,6.54004 3.2206,1.4243 8.8143,4.52256 12.4305,6.88503 6.7483,4.40871 22.0749,19.38208 22.0749,21.56617 0,1.96153 5.0316,5.38723 10.2944,7.00876 4.6092,1.42016 4.9705,1.7907 6.787,6.96161 2.1918,6.23923 2.3894,10.28287 0.8094,16.5578 -0.9233,3.66684 -0.8515,4.66274 0.4286,5.94282 2.0719,2.0719 2.3556,1.96894 3.1353,-1.13788 1.0496,-4.18165 7.3515,-13.03165 11.9809,-16.82511 2.3123,-1.89473 6.8727,-4.61226 10.1343,-6.03897 3.2615,-1.42672 7.1366,-3.24608 8.6113,-4.04303 1.4746,-0.79695 2.925,-1.05443 3.223,-0.57219 0.2981,0.48224 3.5032,1.11451 7.1226,1.40504 8.8813,0.7129 17.8859,5.19056 23.908,11.88864 2.5109,2.79267 4.5652,5.44222 4.5652,5.88789 0,0.44568 3.0375,1.84133 6.75,3.10145 8.7774,2.9793 17.3152,3.04098 22.75,0.16437 7.6343,-4.04082 13.5306,-12.35724 13.478,-19.01032 -0.1123,-14.23171 -20.6814,-23.10247 -29.0119,-12.5119 -3.4721,4.41403 -1.7726,13.65741 2.9785,16.20014 3.3375,1.78619 8.7432,1.20996 11.4483,-1.22036 3.0864,-2.7729 3.9093,-6.3847 1.3571,-5.95616 -2.1576,0.36227 -2.4965,-4.29341 -0.3719,-5.10871 2.1023,-0.80672 3.6219,1.33924 3.6219,5.11487 0,2.55734 -0.8741,4.27414 -3.527,6.92701 -3.2697,3.26968 -3.8691,3.48845 -8.2157,2.99853 -9.915,-1.11757 -14.8324,-12.32331 -8.6382,-19.68473 3.6042,-4.2833 7.4268,-6.04374 13.0812,-6.02436 8.2478,0.0283 16.444,6.50427 17.9939,14.21732 0.3021,1.50357 1.0068,2.45102 1.566,2.10544 1.5297,-0.94541 -0.071,6.36911 -2.387,10.90934 -6.8869,13.49935 -20.4607,19.51042 -34.4643,15.26227 -2.6999,-0.81904 -4.947,-1.49404 -4.9935,-1.5 -0.047,-0.006 0.1228,3.57353 0.3764,7.95441 0.3866,6.67704 0.116,8.69955 -1.6732,12.50581 -3.1272,6.65277 -8.405,11.96964 -14.5512,14.65886 -3.9522,1.72927 -5.8384,3.24884 -6.9759,5.6201 -1.5473,3.22524 -1.5397,3.25 0.9945,3.25 1.4045,0 4.4449,-1.30119 6.7564,-2.89154 6.812,-4.68682 11.637,-6.27639 20.7577,-6.83863 10.6324,-0.65543 16.3675,1.02787 24.8984,7.30796 5.9231,4.36037 6.0015,4.38503 6.0015,1.88802 0,-3.51736 2.4168,-8.94171 5.9995,-13.46513 l 3.0278,-3.82293 -3.7637,-1.83888 c -3.0918,-1.51064 -3.8212,-2.44167 -4.0864,-5.21603 -0.4855,-5.07829 1.2418,-6.05368 4.7567,-2.68614 2.4973,2.39249 3.834,2.84182 8.7566,2.94341 5.3003,0.10938 5.7761,-0.0554 5.4281,-1.88011 -1.0215,-5.3561 -0.4094,-14.20367 1.191,-17.218 2.4005,-4.52094 6.7414,-8.282 9.559,-8.282 1.3257,0 4.1133,1.55777 6.2631,3.5 2.1307,1.925 4.5478,3.5 5.3712,3.5 1.937,0 1.9126,1.41029 -0.053,3.04125 -1.2349,1.02486 -2.8327,1.04974 -7.8653,0.12244 -3.4736,-0.64003 -7.2647,-1.16369 -8.4246,-1.16369 -4.2671,0 -6.8413,10.1552 -3.7081,14.62846 1.1533,1.64652 2.9195,2.19647 8.5775,2.67082 8.9013,0.74626 14.7462,3.50332 19.9431,9.40723 l 3.9953,4.53899 2.9171,-3.12275 c 2.3068,-2.4694 3.7224,-3.1161 6.7659,-3.09095 3.9971,0.033 3.8533,0.46516 -1.1573,3.47797 -1.1461,0.68917 -1.8017,2.72511 -2.0649,6.41241 -0.2482,3.47843 -1.0616,6.14615 -2.2837,7.49023 -1.044,1.14817 -2.2097,3.88759 -2.5904,6.08759 -0.3807,2.2 -1.7928,6.43102 -3.138,9.40228 -1.3451,2.97125 -2.3089,5.53909 -2.1416,5.70632 0.5666,0.56661 15.8873,-4.49866 17.3973,-5.75181 0.9995,-0.82957 1.3069,-2.20905 0.9216,-4.13571 -0.4758,-2.37919 0,-3.4055 2.6638,-5.79765 1.7831,-1.59869 4.4795,-4.09203 5.992,-5.54077 l 2.75,-2.63407 0,3.75767 c 0,5.17521 -3.0802,9.68872 -9.5364,13.97411 -3.005,1.9946 -5.4636,3.85654 -5.4636,4.13764 0,0.28111 1.35,1.64706 3,3.03544 1.7235,1.45023 2.9664,3.44389 2.9211,4.68544 -0.043,1.18861 -0.3077,1.59345 -0.5872,0.89965 -1.0471,-2.59917 -4.0252,-3.26547 -7.7113,-1.72531 -4.8467,2.02505 -7.9687,1.86676 -10.1226,-0.51323 -0.9955,-1.1 -2.1692,-2 -2.6083,-2 -0.4391,0 -4.0818,2.94304 -8.095,6.54008 -7.798,6.98944 -17.8073,12.4379 -26.5467,14.45042 -4.5394,1.04534 -5.25,1.53388 -5.25,3.60924 0,3.13271 3.0048,3.19609 7.1237,0.15026 2.2243,-1.64482 4.4986,-2.27134 8.4555,-2.32934 2.9771,-0.0436 5.7146,-0.38114 6.0835,-0.75 0.3688,-0.36886 2.0956,-0.67066 3.8373,-0.67066 3.8001,0 4.8726,-0.84617 3.3689,-2.65799 -1.6541,-1.99306 2.5487,-1.7816 4.5597,0.22942 3.0563,3.0563 0.8267,7.02751 -4.5491,8.10268 -1.5837,0.31674 -2.8795,0.74075 -2.8795,0.94224 0,0.20149 1.575,2.42971 3.5,4.95159 2.9698,3.89068 3.5,5.37783 3.5,9.81753 0,6.01056 -1.7933,9.29157 -4.5089,8.24949 -1.6976,-0.65144 -1.7015,-0.76063 -0.069,-1.95411 1.6344,-1.19508 1.6354,-1.49742 0.019,-5.53706 -1.4093,-3.52219 -1.4923,-4.67931 -0.4719,-6.58578 1.0314,-1.92724 0.9513,-2.75008 -0.4806,-4.93542 -2.3538,-3.59233 -3.4707,-3.28864 -2.813,0.76484 0.4288,2.64181 0.057,3.87984 -1.6874,5.62454 -1.883,1.88308 -2.972,2.15007 -6.8812,1.68709 l -4.6441,-0.55003 -1.802,4.35675 c -0.9911,2.39621 -2.8824,5.0647 -4.203,5.92996 -3.8481,2.52142 -11.3536,3.72359 -16.8231,2.69464 -4.1376,-0.77837 -5.6258,-0.57973 -9.9481,1.32781 l -5.0826,2.2431 4.4138,1.47129 c 4.0636,1.35451 4.8134,1.3159 9.4481,-0.48651 7.1611,-2.78495 22.8593,-3.39768 32.0066,-1.24929 23.6249,5.5487 40.9967,23.45969 46.1314,47.56322 2.1202,9.95256 1.3713,28.5202 -1.5661,38.82863 -5.5661,19.53346 -17.362,33.96857 -34.5377,42.26501 -10.6923,5.16472 -19.0239,7.13838 -30.7518,7.2847 -7.4678,0.0932 -8.9902,0.32325 -6.5,0.98236 1.7885,0.47339 8.4268,0.62913 14.7518,0.34609 13.0232,-0.58278 18.0241,-2.02277 31.7327,-9.13716 10.3983,-5.39642 16.3509,-7.56963 20.7341,-7.56963 4.8483,0 12.4671,2.58931 15.2152,5.17095 1.7112,1.6076 3.372,2.19712 5.547,1.96898 1.7626,-0.18489 5.1922,0.65221 7.9348,1.93679 5.3156,2.48971 7.1536,2.0365 4.3417,-1.07059 -1.7713,-1.95734 -1.7547,-2.00613 0.6845,-2.00613 5.6635,0 8.3696,8.50896 3.8659,12.15583 -2.7569,2.23237 -8.4884,2.38857 -12.4193,0.33846 l -2.8635,-1.49338 0.6021,3.24954 c 0.3311,1.78725 0.89,6.64267 1.2419,10.78981 0.5808,6.84323 0.3913,8.0658 -2.0495,13.2253 -2.6072,5.51112 -6.8663,9.73444 -9.817,9.73444 -0.7923,0 -2.2551,-0.9 -3.2506,-2 -1.7672,-1.95273 -1.7466,-2 0.8698,-2 3.0352,0 4.6302,-2.89897 4.6302,-8.41588 0,-5.66444 1.8804,-9.58412 4.5978,-9.58412 2.1752,0 2.4022,-0.41917 2.4022,-4.4349 0,-4.93743 -1.4243,-9.5651 -2.9439,-9.5651 -0.5463,0 -0.7469,0.64221 -0.4457,1.42713 1.0384,2.70589 -3.1281,10.13044 -6.4592,11.51023 -7.0132,2.90497 -16.1512,-2.32168 -16.1512,-9.23799 0,-5.11055 4.8909,-7.86496 8.9353,-5.03213 2.7451,1.92277 2.6045,2.7417 -0.6853,3.99089 l -2.75,1.04422 3,1.21544 c 1.65,0.66849 3.9993,2.15151 5.2207,3.2956 2.7674,2.59225 4.741,1.31523 6.3699,-4.12153 2.2469,-7.4995 -2.2256,-16.2433 -9.2801,-18.1429 -6.8382,-1.84134 -12.8762,-0.29279 -27.2668,6.99303 -16.0784,8.14038 -21.3351,9.39326 -37.4142,8.91716 -6.6713,-0.19753 -12.1295,-0.18822 -12.1295,0.0207 0,0.41378 4.4045,5.20198 15.9799,17.37207 12.0735,12.69372 20.8149,17.07826 26.553,13.31849 2.8631,-1.87601 3.1283,-3.76631 0.8482,-6.0464 -1.4625,-1.46256 -1.7839,-1.46946 -3.3287,-0.0714 -3.2173,2.91164 -7.0524,1.21641 -7.0524,-3.11739 0,-2.6909 3.2853,-4.73139 6.3709,-3.95695 3.1267,0.78476 7.4913,5.68284 8.1938,9.19531 0.8012,4.00618 -1.9487,7.30865 -6.7219,8.07266 -4.2488,0.68006 -12.9701,-2.8455 -19.0342,-7.69449 -2.0302,-1.62344 -3.8729,-2.95171 -4.0948,-2.95171 -0.2218,0 0.4512,2.53148 1.4958,5.62552 2.1217,6.28465 2.6757,14.30201 1.5211,22.01041 l -0.7693,5.13593 6.2693,2.48012 c 3.4481,1.36406 13.9193,4.63697 23.2693,7.27313 l 17,4.79302 9.5,-1.2762 c 26.1441,-3.51214 35.0091,-2.31854 43.1354,5.80776 7.7135,7.71354 8.3116,15.78782 1.6913,22.83479 -5.9929,6.37911 -18.8267,1.67804 -18.8267,-6.89626 0,-6.3533 9.2961,-11.34923 13.4286,-7.21679 3.2548,3.25483 0.9189,9.42857 -3.5674,9.42857 -1.4692,0 -1.8447,-0.47649 -1.423,-1.8054 0.3455,-1.08837 -0.2726,-2.71306 -1.5561,-4.09077 -1.7728,-1.90289 -2.3463,-2.06098 -3.427,-0.9446 -3.0083,3.10781 -2.1291,8.44854 1.7949,10.90328 9.391,5.87477 19.7238,-5.55539 14.3393,-15.86217 -3.4879,-6.67631 -10.7699,-11.01231 -19.9312,-11.8678 -6.3044,-0.58872 -25.9867,1.19235 -28.4576,2.57514 -0.8975,0.50225 0.7337,2.06468 5.1105,4.89524 9.2547,5.98512 15.833,12.23123 20.4486,19.41585 5.2341,8.1473 6.0599,10.78123 3.3802,10.78123 -1.3631,0 -3.1311,-1.87027 -5.5819,-5.90473 z m -78.8473,-53.97419 c 0.6609,-4.92768 -0.3282,-5.17339 -4.2688,-1.06037 l -2.9323,3.0607 2.4952,1.8853 c 3.0283,2.28804 3.9836,1.49924 4.7059,-3.88563 z M 1293,546.70887 c 0,-5.77413 -8.4943,-11.58205 -12.8781,-8.80536 -2.0714,1.312 -0.392,3.09649 2.9141,3.09649 3.4164,0 5.5868,2.75487 6.3029,8 0.2628,1.925 0.5334,3.725 0.6013,4 0.3958,1.60354 3.0598,-3.87379 3.0598,-6.29113 z m 4.5381,1.22945 c 0.3609,-0.58393 1.6829,-1.45204 2.9377,-1.92913 2.0244,-0.76966 2.2005,-1.29815 1.5621,-4.68832 -0.9851,-5.23138 -4.8226,-13.81608 -7.0955,-15.87304 -1.7788,-1.60972 -1.9345,-1.55935 -3.1023,1.00369 -1.3404,2.94198 -5.506,5.54848 -8.8674,5.54848 -1.1696,0 -3.4946,-1.36803 -5.1666,-3.04006 -2.5502,-2.55017 -2.9385,-3.55734 -2.4096,-6.25 0.7493,-3.81532 2.9259,-5.6999 5.7346,-4.9654 2.7469,0.71834 3.4311,2.92755 2.0445,6.60131 -0.8922,2.36361 -0.8727,3.22806 0.086,3.83722 1.8566,1.17921 2.5485,1.00645 4.738,-1.18307 3.0395,-3.03949 2.5617,-7.43119 -1.25,-11.49026 -3.6758,-3.9143 -14.589,-10.72726 -15.8927,-9.92154 -1.8166,1.12271 -0.6726,10.3059 2.4182,19.4118 l 3.2245,9.5 5.1767,0 c 7.9341,0 10.9987,2.81201 12.8055,11.75 0.5717,2.82795 1.8985,3.56101 3.0559,1.68832 z M 1271.2528,540.75 c 0.4259,-1.2692 -2.2831,-8.1613 -3.7386,-9.51161 -0.8602,-0.79796 0.1015,8.33078 1.0371,9.84454 0.8074,1.30644 2.2093,1.13367 2.7015,-0.33293 z M 1201,508.22179 c 0,-0.97802 1.5899,-5.09579 3.5331,-9.15062 4.0724,-8.49764 4.157,-11.63084 0.1285,-4.75664 -1.4994,2.55842 -4.2866,5.89678 -6.1938,7.41857 -4.0449,3.22743 -4.2949,4.5742 -1.2453,6.7102 2.8801,2.01727 3.7775,1.96465 3.7775,-0.22151 z m 8.9747,-1.69136 c 1.9459,-2.34463 0.4549,-3.04196 -2.4435,-1.14284 -3.0072,1.9704 -3.6303,5.27102 -0.699,3.70219 1.0078,-0.53932 2.4219,-1.69103 3.1425,-2.55935 z M 1188.4106,501.5 c 0.6368,-2.53703 4.0686,-3.56244 4.78,-1.42824 0.518,1.5541 5.2724,-2.46688 7.852,-6.64076 2.6461,-4.28142 2.1342,-5.09092 -1.9,-3.00474 -3.8791,2.00594 -4.1426,1.98106 -4.1426,-0.39108 0,-1.08065 0.9439,-2.47 2.0977,-3.08744 l 2.0976,-1.12264 -2.1453,-1.50264 c -1.6979,-1.18927 -1.9013,-1.79669 -0.9752,-2.91256 2.2043,-2.656 -2.9812,-1.59437 -5.7535,1.17792 -2.3816,2.38155 -2.5386,3.05908 -1.9699,8.5 0.5703,5.45687 0.4634,5.91218 -1.3882,5.91218 -1.1694,0 -2.4811,-1.04267 -3.1452,-2.5 -0.6264,-1.375 -1.9668,-2.5 -2.9785,-2.5 -1.5561,0 -1.8395,0.8218 -1.8395,5.33333 0,2.93334 0.3,5.63334 0.6667,6 0.3666,0.36667 2.3428,0.66667 4.3916,0.66667 3.1392,0 3.8235,-0.39307 4.3523,-2.5 z M 1174,498.12573 c 0,-1.58085 0.655,-4.73085 1.4556,-7 1.3816,-3.91585 1.3562,-4.13336 -0.5,-4.27573 -1.0756,-0.0825 -2.4895,-0.195 -3.142,-0.25 -0.6526,-0.055 -1.5654,1.3625 -2.0286,3.15 -1.3449,5.19011 -2.785,3.76811 -2.785,-2.75 0,-6.20638 -1.0889,-7.57087 -3.0771,-3.85584 -2.14,3.99851 -0.457,9.96758 3.9764,14.10296 4.8288,4.50427 6.1007,4.68745 6.1007,0.87861 z m 141.1788,-2.87779 c 26.5467,-9.56688 49.3559,-44.53872 40.9253,-62.74794 -3.6023,-7.78061 -9.5035,-11.5 -18.2461,-11.5 -4.1735,0 -5.4873,0.47541 -7.8538,2.84198 -5.6265,5.62648 -6.3978,16.63708 -1.4656,20.92231 3.0598,2.65847 4.4674,2.16037 4.4459,-1.57331 -0.011,-1.926 1.1637,-3.70538 4.1324,-6.25932 3.7038,-3.18628 4.0229,-3.80193 2.9803,-5.75 -1.3484,-2.51954 -1.1287,-2.60875 2.4307,-0.98697 2.866,1.30583 5.4721,5.49935 5.4721,8.80531 0,5.92411 -6.5782,11.99252 -13,11.99252 -14.8515,0 -18.9793,-23.5479 -5.5457,-31.63654 2.1152,-1.2736 5.0316,-1.83726 9.5457,-1.84493 5.5055,-0.009 7.3797,0.4875 12.25,3.2475 5.6712,3.21389 5.7498,3.2276 5.7352,1 -0.027,-4.14206 -2.9652,-14.84012 -5.6126,-20.43621 -5.0168,-10.60463 -13.8209,-17.75522 -21.0689,-17.11182 l -3.8037,0.33766 2.774,1.39735 c 3.4254,1.72553 4.5265,5.53334 2.5982,8.98518 -1.7492,3.13121 -6.0125,3.86259 -9.4368,1.6189 -5.4393,-3.56394 -1.5028,-14.49736 5.7969,-16.10064 l 3.1783,-0.69806 -2.4553,-2.0209 c -3.7469,-3.08398 -13.975,-7.60301 -18.46,-8.15613 -3.6121,-0.44546 -4.1692,-0.20724 -5.6829,2.43023 -0.9881,1.72168 -2.8366,3.17881 -4.4953,3.54352 -4.9005,1.07751 -5.2432,1.30987 -5.9222,4.01507 -0.4129,1.64531 -0.049,3.93918 0.9606,6.05658 3.7675,7.90058 2.6829,16.80631 -2.5165,20.66404 -2.2844,1.69486 -3.1246,1.81278 -5.9351,0.83302 -4.4204,-1.54097 -6.9039,-3.95552 -6.9039,-6.71231 0,-2.39071 2.1291,-4.51661 2.727,-2.72289 0.1898,0.56938 0.9671,1.88587 1.7273,2.92553 1.3455,1.84002 1.4631,1.83049 4.4235,-0.35819 1.6727,-1.23666 3.7344,-2.24848 4.5817,-2.24848 2.5994,0 1.8274,-9.51658 -1.0437,-12.86538 -0.1723,-0.20096 -1.4233,0.92404 -2.78,2.5 -2.2194,2.57811 -3.0752,2.86189 -8.5361,2.83057 -7.6829,-0.0441 -9.8032,-1.71699 -5.8497,-4.61569 3.5839,-2.62776 3.7073,-5.12787 0.2097,-4.25003 -1.7107,0.42936 -3.1606,0.0762 -4.4397,-1.08137 -1.8187,-1.64594 -2.0831,-1.52999 -6.2233,2.72996 -9.1969,9.46295 -13.3569,24.62833 -8.1779,29.81287 l 2.1187,2.12103 0.6043,-2.40756 c 0.9183,-3.65877 4.8085,-5.36901 8.6207,-3.78992 5.1285,2.12427 4.9474,9.06279 -0.3267,12.5185 -2.8539,1.86997 -4.9048,2.10858 -9.3571,1.08865 l -3.2213,-0.73794 1.8614,5.41033 c 3.4929,10.15213 6.2188,13.8032 12.7815,17.11901 4.8263,2.43845 6.2997,2.10746 6.2997,-1.41515 0,-7.77843 4.5106,-12.50712 14.7894,-15.50431 5.745,-1.6752 9.2106,-4.41573 9.2106,-7.28357 0,-1.001 -1.6727,-3.77413 -3.717,-6.16251 l -3.7171,-4.34251 4.4056,0.70447 c 10.5335,1.68438 16.5633,8.64848 16.2835,18.80674 -0.2956,10.73094 -6.7056,19.14715 -17.8141,23.38953 -6.0123,2.29614 -18.3795,1.60287 -24.5122,-1.37409 -18.3847,-8.9244 -26.8082,-34.98663 -17.9711,-55.60272 1.9621,-4.57734 1.9621,-4.59891 0,-4.59891 -1.7156,0 -1.8117,-0.25815 -0.7372,-1.97873 0.9916,-1.58787 0.9628,-2.62492 -0.1457,-5.25 -0.7598,-1.7992 -1.4297,-4.82797 -1.4887,-6.73061 -0.097,-3.14526 -0.4694,-3.56326 -4.0958,-4.60402 -2.1937,-0.62957 -8.3761,-1.46252 -13.7386,-1.851 l -9.75,-0.70631 0,3.00965 c 0,3.53593 5.5599,9.47303 8,8.5428 3.4245,-1.30551 7,-1.62909 7,-0.63351 0,2.12669 -5.1701,7.10276 -8.5327,8.21253 -2.3572,0.77793 -3.4673,1.75981 -3.4673,3.06675 0,2.28053 -1.5427,2.55649 -2.3616,0.42245 -0.9042,-2.35628 -3.8964,-1.76326 -6.8401,1.35562 -3.0525,3.2341 -10.4571,5.69781 -14.2577,4.74392 -2.3517,-0.59024 -2.5406,-0.3821 -2.5406,2.79962 0,4.42349 -0.8599,6.60084 -2.607,6.60084 -0.8639,0 -1.393,-1.07949 -1.393,-2.84225 0,-2.19343 -1.3564,-4.08477 -5.942,-8.28524 l -5.9419,-5.44299 0.9958,-4.43208 c 1.4353,-6.38809 0.5679,-8.35666 -5.8673,-13.31577 -3.1595,-2.43478 -7.9545,-7.18681 -10.6555,-10.56007 -2.7009,-3.37326 -5.0498,-5.99423 -5.2197,-5.82437 -0.9181,0.91818 14.3572,48.53852 18.0703,56.33311 6.9788,14.65041 14.5316,21.36966 24.0205,21.36966 4.4704,0 4.5398,-0.0505 4.5398,-3.30422 0,-3.76974 5.1813,-12.69578 7.3696,-12.69578 3.5593,0 2.4265,9.85514 -1.6661,14.49454 -1.2119,1.37381 -4.0035,3.11499 -6.2035,3.86928 l -4,1.37144 4,1.12679 c 7.2484,2.04187 16.4808,1.02263 20.8276,-2.29934 1.7568,-1.34254 1.7374,-1.55455 -0.5,-5.46521 l -2.3276,-4.06848 2.8682,-5.50609 c 2.8002,-5.37556 2.8854,-6.40254 1.0391,-12.52293 -0.6776,-2.24631 -0.585,-2.36126 0.9129,-1.13283 0.9169,0.75195 3.02,3.73173 4.6734,6.62173 5.618,9.81915 3.1033,19.29065 -6.3759,24.01431 -2.7557,1.37324 -6.272,2.49679 -7.814,2.49679 -4.1054,0 -3.4452,1.33301 2.1753,4.39206 2.7385,1.49045 5.6635,3.6871 6.5,4.88143 1.5742,2.24741 2.0902,6.739 0.771,6.71006 -2.3148,-0.0508 -9.0318,-5.04066 -11.3191,-8.40867 -2.2392,-3.29718 -3.813,-4.29627 -10.0431,-6.37585 -4.0633,-1.3563 -9.7503,-3.97534 -12.6378,-5.82009 -3.2706,-2.08949 -5.25,-2.86214 -5.25,-2.04929 0,0.71764 2.3509,5.24847 5.2243,10.0685 14.9847,25.13654 38.4091,42.80074 66.0155,49.78181 13.5634,3.42989 26.0169,1.05739 32.0432,-6.10448 3.0944,-3.67742 3.6477,-9.30176 1.2516,-12.72261 -3.6798,-5.2537 -15.0155,-7.12227 -19.8997,-3.28029 -2.7605,2.17139 -3.4708,6.13148 -1.6013,8.92742 0.8748,1.30825 1.1348,1.27629 2.0344,-0.25 0.5673,-0.9625 1.6216,-1.75 2.343,-1.75 0.8744,0 1.1454,-0.86956 0.813,-2.60869 -0.4506,-2.35722 -0.304,-2.5045 1.521,-1.52778 2.3439,1.2544 3.2612,3.22739 3.2397,6.96826 -0.023,3.92071 -1.4258,5.50154 -4.8838,5.50154 -9.7766,0 -11.8417,-15.27513 -2.6704,-19.75191 3.4584,-1.68814 4.5837,-1.78156 9.3691,-0.7778 9.8383,2.06359 16.1465,9.33967 14.7146,16.97222 -0.4022,2.14423 -2.4223,5.35433 -5.3309,8.47127 l -4.6833,5.01875 8.5,-0.48569 c 4.8639,-0.27793 10.9293,-1.36116 14.1788,-2.53223 z m -102.897,-17.02916 c 0.1295,-3.03841 -0.2897,-5.62578 -1.0318,-6.36824 -1,-1.00048 -1.25,0.22917 -1.25,6.14946 0,8.51732 1.92,8.70141 2.2818,0.21878 z M 1198,477.42851 c 6.5596,-0.0985 8.5,-0.44731 8.5,-1.52806 0,-4.46212 -17.7036,-6.915 -24.509,-3.3958 l -3.2509,1.68113 2.3799,2.3934 c 1.9089,1.91967 2.9738,2.25322 5.38,1.68517 1.65,-0.38953 6.825,-0.76565 11.5,-0.83584 z m 5.9886,-13.95198 c -2.4688,-5.09992 -3.6695,-5.59603 -4.5973,-1.89948 -0.7794,3.10522 1.0431,6.85992 3.9733,8.18589 3.0544,1.38222 3.2726,-0.81523 0.624,-6.28641 z M 1192,462 c 0,-0.55 -0.1984,-1 -0.441,-1 -0.2425,0 -0.7191,0.45 -1.059,1 -0.3399,0.55 -0.1415,1 0.441,1 0.5824,0 1.059,-0.45 1.059,-1 z m -13,-39 c -1.2479,-2.33177 -3.5444,-2.62966 -4.3376,-0.56265 -0.5146,1.34111 0.8506,2.1513 4.1228,2.44665 0.9784,0.0883 1.0297,-0.36132 0.2148,-1.884 z m 34.6462,-28.68775 C 1214.9408,393.464 1216,392.42056 1216,391.99349 1216,391.19166 1203.1617,388 1199.9364,388 c -1.0001,0 -2.1207,-0.48921 -2.4903,-1.08713 -0.4679,-0.75712 -0.9896,-0.76938 -1.7186,-0.0404 -1.4854,1.48539 3.5726,8.85034 6.4876,9.44676 3.3785,0.69121 8.7534,-0.25247 11.4311,-2.00698 z m 57.5952,-20.7378 c 1.5078,-0.98627 2.4937,-2.194 2.191,-2.68383 -0.6237,-1.00914 -16.3609,-1.00174 -20.9324,0.01 l -3,0.66383 2.8011,1.86635 c 3.1687,2.11129 5.6989,6.40218 5.6989,9.66475 0,1.90832 0.6851,1.54731 5.25,-2.76651 2.8875,-2.72867 6.4836,-5.76817 7.9914,-6.75444 z m -48.819,3.61426 c -0.9872,-4.53744 -2.615,-8.18871 -3.6507,-8.18871 -0.563,0 -0.6582,0.75045 -0.222,1.75 0.42,0.9625 1.238,3.63042 1.8178,5.92872 1.1354,4.50084 3.0252,4.96986 2.0549,0.50999 z M 1201.1,376.83987 c 7.1176,-5.11189 7.2946,-5.84561 2.15,-8.91169 -4.7143,-2.80968 -6.25,-4.68714 -6.25,-7.64112 0,-1.75786 -1.5145,-3.30952 -6.1621,-6.31343 -3.3892,-2.19052 -6.4209,-3.72395 -6.7372,-3.40762 -0.6204,0.6204 -0.7156,1.23678 -0.9484,6.14503 -0.088,1.8622 -1.0716,4.06754 -2.3409,5.25 -2.9539,2.75199 -4.0097,2.56819 -2.6308,-0.45798 0.9295,-2.04004 0.7888,-3.14465 -0.7687,-6.03674 -1.7964,-3.33579 -1.8106,-3.70646 -0.2466,-6.43161 1.4256,-2.48391 1.4649,-3.14874 0.279,-4.71326 -1.3353,-1.76151 -1.6373,-1.48939 -1.8484,1.6652 -0.155,2.31578 -3.3362,2.36714 -4.5636,0.0737 -0.8509,-1.58984 -2.0842,-2.06033 -5.4008,-2.06033 -2.364,0 -4.563,0.26484 -4.8867,0.58852 -0.7634,0.7634 4.5342,9.78137 8.7597,14.91148 9.8321,11.93695 20.0641,20.5 24.4955,20.5 1.485,0 4.6799,-1.42206 7.1,-3.16013 z m 76.5549,0.617 c 0.3257,-0.84872 0.3225,-1.81284 -0.01,-2.1425 -0.7122,-0.71223 -3.6477,1.54756 -3.6477,2.80807 0,1.50909 3.0323,0.9569 3.6549,-0.66557 z M 1218.4534,375.75 c -1.5697,-5.18288 -6.1723,-10.75 -8.8877,-10.75 -0.3111,0 -0.5657,1.8 -0.5657,4 0,3.20603 0.3624,4 1.8257,4 1.0041,0 2.8826,1.125 4.1743,2.5 2.917,3.10506 4.3494,3.20875 3.4534,0.25 z M 1302,372.5 c 1.0125,-1.21995 0.9648,-1.5 -0.2551,-1.5 -0.825,0 -2.0602,0.675 -2.7449,1.5 -1.0125,1.21995 -0.9648,1.5 0.2551,1.5 0.825,0 2.0602,-0.675 2.7449,-1.5 z m -144.472,-11.43501 c -1.3941,-4.08926 -3.9957,-9.59504 -5.7814,-12.23507 -2.8032,-4.14452 -3.6736,-4.77533 -6.3729,-4.61894 -1.7195,0.0996 -4.3685,-0.63276 -5.8867,-1.62753 l -2.7603,-1.80865 0.6994,2.8626 c 2.4733,10.12237 11.1558,22.95246 17.7497,26.22866 4.0096,1.99224 4.3447,2.0207 4.6056,0.39123 0.1547,-0.96651 -0.8593,-5.10304 -2.2534,-9.1923 z m 100.6265,4.49283 c 2.56,-0.9244 6.3608,-3.15576 8.4464,-4.95857 l 3.7919,-3.27783 -4.8871,-5.66071 C 1262.8177,348.54732 1260.4023,346 1260.138,346 c -0.2643,0 -1.3035,0.74474 -2.3093,1.65499 -2.2148,2.00441 -2.3777,5.64447 -0.3287,7.34501 1.2402,1.02929 1.5205,0.92061 1.6185,-0.62756 0.065,-1.02984 0.045,-2.43494 -0.044,-3.12244 -0.2093,-1.61215 1.0775,-1.5905 3.3292,0.056 2.7551,2.01458 1.7499,6.11848 -1.5932,6.50455 -6.1461,0.70975 -9.2145,-7.77455 -4.2297,-11.69553 2.6675,-2.09825 2.6835,-3.88755 0.066,-7.31931 -1.1934,-1.56434 -1.7043,-1.58184 -6.2233,-0.2132 -6.1159,1.8523 -10.5112,1.18025 -17.1762,-2.62634 -8.7508,-4.99776 -13.6512,-14.32054 -13.4875,-25.65906 l 0.09,-6.20287 -5.1745,-3.41205 C 1206.5136,295.30091 1194.5087,290 1190.4827,290 c -1.9476,0 -2.7489,10.04836 -0.959,12.02622 2.0525,2.26791 1.8508,2.97378 -0.8494,2.97378 -3.3528,0 -7.0465,-4.27278 -6.4393,-7.44893 0.5937,-3.10587 -0.5149,-3.2124 -5.735,-0.55107 -2.1576,1.1 -4.6167,2 -5.4647,2 -0.848,0 -2.816,1.35 -4.3733,3 -1.5573,1.65 -3.3031,3 -3.8795,3 -0.5763,0 -1.7757,0.82936 -2.6652,1.84302 -0.8895,1.01367 -2.6589,2.39505 -3.9319,3.06974 -1.8609,0.9863 -2.0819,1.50703 -1.1275,2.65698 0.6528,0.78664 1.7928,1.43026 2.5332,1.43026 0.7404,0 1.1077,0.62137 0.8163,1.38082 -0.4712,1.22773 3.9837,3.61918 6.7418,3.61918 1.575,0 0.8682,-2.69532 -1.6986,-6.47769 -2.6604,-3.92034 -2.6253,-5.74212 0.068,-3.50719 1.1866,0.98476 1.8474,1.01932 2.7242,0.1425 3.1165,-3.11656 9.7667,1.09171 9.7423,6.16496 -0.01,1.74758 -0.4347,3.84054 -0.9472,4.65103 -1.1675,1.84614 0.4423,2.99013 4.2371,3.01108 2.2274,0.0123 3.3122,-0.87463 5.4999,-4.49663 3.0789,-5.09726 4.7846,-5.9864 8.6585,-4.51353 4.1611,1.58203 6.1483,1.2487 9.5325,-1.59896 3.5541,-2.99058 4.4152,-2.7404 3.474,1.00938 -1.2553,5.00147 -8.6111,9.27249 -19.4386,11.28666 l -4.499,0.83694 3.687,2.17539 c 2.0278,1.19646 4.3883,3.5315 5.2454,5.18897 1.6622,3.21437 0.6203,5.10272 -1.4434,2.61608 -0.6797,-0.81894 -1.6858,-1.48899 -2.2358,-1.48899 -0.5765,0 -0.494,0.60964 0.1947,1.43953 1.7187,2.07091 0.9212,6.973 -1.1998,7.37524 -2.0569,0.39009 -2.5036,-3.33428 -0.5,-4.16862 0.8866,-0.36918 0.6857,-0.97485 -0.6911,-2.08333 -2.8941,-2.33007 -4.2391,-1.912 -4.9278,1.53181 -0.7091,3.54554 0.6303,5.04441 8.8689,9.92474 4.9466,2.93025 12.3478,4.01308 15.1418,2.21532 0.6654,-0.42812 1.0827,-3.09782 1,-6.39796 -0.161,-6.43054 0.7188,-8.06316 2.8367,-5.26373 2.1014,2.77753 1.8478,7.74244 -0.5511,10.79214 -2.3794,3.02494 -2.1144,3.15766 2.4756,1.23984 5.0539,-2.11168 15.597,0.26601 15.597,3.51746 0,1.38807 -6.3494,1.02047 -8.5275,-0.4937 -1.4938,-1.03844 -4.1569,-1.22047 -10.9725,-0.75 l -9,0.62126 3.569,2.73066 c 4.8749,3.72977 16.0904,8.69394 23.3929,10.35411 8.0852,1.83812 27.3876,1.24979 33.6926,-1.02695 z m -40.6585,-19.73541 2.6737,-3.17758 -2.5848,-1.35435 c -2.171,-1.13748 -2.5849,-2.04502 -2.5849,-5.66743 0,-3.04748 -0.5887,-4.84581 -2.0061,-6.1286 -1.1034,-0.99854 -1.8209,-2.00076 -1.5945,-2.22717 0.7396,-0.73958 8.4878,4.65342 9.5576,6.65238 1.9564,3.65551 1.2222,8.51938 -1.7962,11.90023 -3.6976,4.14154 -5.1494,4.14374 -1.6648,0.003 z m 58.6407,15.38983 c -0.7214,-0.24048 -1.7871,0.0382 -2.3683,0.61931 -0.742,0.74207 -0.3516,0.87221 1.3118,0.43724 1.3522,-0.35361 1.8055,-0.8069 1.0565,-1.05655 z m 21.1454,-1.57422 c 6.2276,-2.63584 9.1077,-8.93974 6.8137,-14.91365 -2.348,-6.11483 -7.2817,-3.52908 -6.3612,3.33393 0.4061,3.02739 0.083,3.9557 -1.8437,5.30556 -1.2848,0.89988 -3.154,1.63614 -4.1539,1.63614 -1.971,0 -7.737,3.86642 -7.737,5.18806 0,1.3279 9.8045,0.92188 13.2821,-0.55004 z m -12.3159,-3.4687 c 1.8649,-1.55687 2.9729,-3.08515 2.4623,-3.39618 -0.5107,-0.31102 -2.691,0.96279 -4.8451,2.83068 -4.7058,4.08049 -2.4646,4.61236 2.3828,0.5655 z m -3.694,-2.24212 c 3.1719,-2.61458 3.7278,-3.67013 3.7278,-7.07842 0,-3.34652 0.6582,-4.65725 4,-7.96584 2.2,-2.17812 4,-4.39284 4,-4.92158 0,-0.52937 -3.3574,-0.96136 -7.4716,-0.96136 -4.1093,0 -10.8273,-0.73737 -14.9287,-1.63859 l -7.4572,-1.63859 -2.5397,2.88859 c -1.3968,1.58872 -2.5538,3.426 -2.5712,4.08283 -0.06,2.27347 4.4866,6.03012 8.7224,7.20677 5.1081,1.41891 7.7461,4.84846 6.9173,8.99262 -1.0312,5.15603 2.0854,5.57983 7.6009,1.03357 z m -10.215,-4.27665 c -0.9943,-2.61523 -5.4782,-5.56284 -6.6618,-4.37927 -0.3279,0.32789 0.8809,2.43413 2.6861,4.68053 3.4879,4.34026 5.6774,4.17435 3.9757,-0.30126 z m 24.6928,-6.1489 c 2.6537,-4.09686 2.723,-4.50165 0.7703,-4.50165 -0.8138,0 -2.3979,1.8 -3.5203,4 -2.6064,5.10906 -0.4851,5.49603 2.75,0.50165 z m 23.25,0.42143 c 0,-3.67093 -4.7217,-8.92308 -8.0219,-8.92308 -1.9954,0 -8.9781,2.77542 -8.9781,3.56849 0,0.18733 1.1327,1.47327 2.517,2.85765 2.0087,2.00865 3.1427,2.39192 5.6144,1.89759 2.8225,-0.56452 3.0368,-0.42896 2.4155,1.52841 -0.6104,1.92315 -0.3085,2.14786 2.8857,2.14786 3.3169,0 3.5674,-0.21604 3.5674,-3.07692 z m -29,-2.23665 c 0,-0.51223 -0.675,-0.37112 -1.5,0.31357 -0.825,0.68469 -1.4857,1.97729 -1.4682,2.87244 0.027,1.36732 0.2666,1.31719 1.5,-0.31357 0.8075,-1.06762 1.4682,-2.36022 1.4682,-2.87244 z m -146.629,-4.47768 c 0.2689,-0.43518 -0.7647,-3.24768 -2.2969,-6.25 -2.8595,-5.60296 -6.452,-7.74357 -7.6697,-4.57013 -0.8851,2.30645 1.4653,8.4067 3.8946,10.10828 2.3264,1.62942 5.2902,1.97688 6.072,0.71185 z m 24.386,-2.78508 c -0.9842,-0.98418 -2.757,0.52669 -2.757,2.34963 0,1.52648 0.1315,1.52374 1.6905,-0.0352 0.9297,-0.92977 1.4097,-1.97126 1.0665,-2.31443 z m -4.3638,-0.68523 c 1.5115,-2.39623 -0.3008,-3.58527 -1.975,-1.29574 -0.78,1.06676 -1.4182,2.34105 -1.4182,2.83176 0,1.33788 2.212,0.33656 3.3932,-1.53602 z m 82.9588,0.0116 c -0.7889,-2.26763 -0.8662,-5.65368 -0.2085,-9.14033 0.2728,-1.44633 -2.4621,-3.84743 -11.6435,-10.22265 -11.5831,-8.04284 -12.0221,-8.2501 -12.6351,-5.9658 -0.9024,3.36235 0.5586,10.28427 2.6611,12.60746 2.2503,2.48664 4.4443,2.57383 3.8109,0.15146 -0.6135,-2.3459 1.9075,-4.42518 4.8581,-4.0069 4.862,0.68925 2.5994,9.82676 -2.4333,9.82676 -2.8202,0 -1.7035,2.04198 3.1445,5.75 3.3381,2.55311 5.212,3.25 8.7389,3.25 4.2212,0 4.4429,-0.13453 3.7069,-2.25 z m -67.2043,-3.77465 C 1178.659,326.54161 1177.1705,324 1175.6481,324 c -1.008,0 -1.0573,0.9664 -0.2309,4.52828 0.7386,3.18335 1.5009,4.4383 2.5667,4.22534 0.9891,-0.19763 1.3937,-1.16333 1.1638,-2.77827 z m -21.24,-1.14048 c 1.4141,-4.05649 -0.967,-7.28779 -4.683,-6.35514 -2.0159,0.50596 -2.3159,0.261 -2.0437,-1.6687 0.345,-2.44576 -1.7131,-3.43181 -4.038,-1.93462 -1.9233,1.2386 -0.6298,4.57902 3.5758,9.23413 4.2614,4.71677 5.745,4.86626 7.1889,0.72433 z M 1171.1821,327 c 0.1749,-1.375 -0.1321,-2.725 -0.6821,-3 -0.5611,-0.28056 -1.1391,1.25555 -1.3168,3.5 -0.3473,4.38476 1.4345,3.93907 1.9989,-0.5 z m 122.9076,-0.16769 c 1.6714,-3.12298 0.3696,-13.2642 -2.3383,-18.21559 C 1285.9699,298.0452 1271,299.183 1271,310.19394 c 0,3.92421 0.085,4.0389 1.8287,2.46105 1.0058,-0.91025 3.0833,-1.65499 4.6167,-1.65499 2.2955,0 2.6955,-0.35319 2.2649,-2 -0.7024,-2.68578 2.3571,-2.68804 4.7865,-0.004 1.4798,1.63517 2.0813,1.77089 3.3236,0.75 1.3216,-1.08599 1.4288,-0.80204 0.8329,2.20546 -1.334,6.73158 -8.2435,11.28889 -13.6931,9.03157 -1.6719,-0.69252 -3.6202,-2.08763 -4.3294,-3.10023 -1.3419,-1.91584 -8.6308,-7.22567 -8.6308,-6.28739 0,0.29458 0.4951,1.46077 1.1003,2.59154 0.6052,1.13076 1.3936,4.10656 1.7521,6.61288 0.5696,3.982 1.0301,4.66224 3.6497,5.39139 5.3556,1.4907 12.8733,2.57196 18.7127,2.69141 4.9044,0.10032 5.8793,-0.1905 6.8749,-2.05079 z m 12.2704,-0.77486 c 1.695,-0.62243 1.6284,-0.83495 -0.75,-2.39332 -3.2903,-2.15593 -3.6082,-7.45092 -0.6101,-10.16413 2.7913,-2.52608 2.4992,-3.5 -1.0497,-3.5 -1.6773,0 -4.4367,-0.71727 -6.1319,-1.59393 l -3.0824,-1.59393 0.7076,2.81925 c 1.3285,5.29293 2.6708,13.4345 2.4983,15.15298 -0.095,0.9436 -0.1204,2.08888 -0.057,2.54509 0.1117,0.80456 4.6929,0.117 8.4753,-1.27201 z M 1167,325 c 0,-0.55 -0.45,-1 -1,-1 -0.55,0 -1,0.45 -1,1 0,0.55 0.45,1 1,1 0.55,0 1,-0.45 1,-1 z m -23,-5.68806 c 0,-0.72157 -0.675,-1.31194 -1.5,-1.31194 -0.825,0 -1.5,0.72314 -1.5,1.60699 0,1.00201 -0.5526,1.39492 -1.468,1.04367 -1.7785,-0.68248 -2.922,0.89062 -2.1361,2.93862 0.4783,1.24658 1.0717,1.12489 3.5886,-0.73594 1.6585,-1.2262 3.0155,-2.81983 3.0155,-3.5414 z m 171.4339,3.36007 c 4.2252,-3.08959 0.641,-10.67201 -5.0447,-10.67201 -2.7566,0 -6.3892,3.22438 -6.3892,5.67126 0,1.88369 2.7864,5.32874 4.31,5.32874 0.55,0 0.2339,-0.84652 -0.7024,-1.88115 -1.5688,-1.73351 -1.5754,-2.00819 -0.084,-3.5 2.9971,-2.99714 5.932,-1.17899 5.279,3.27036 -0.5052,3.44182 -0.055,3.74682 2.6309,1.7828 z m -155.6631,-2.48451 c 0.2211,-0.66333 -0.5237,-1.1875 -1.6875,-1.1875 -2.0773,0 -2.6999,1.05007 -1.3958,2.35417 0.9265,0.92647 2.5962,0.29467 3.0833,-1.16667 z M 1172.8,319.8 c 1.6887,-1.68866 1.493,-6.31197 -0.3313,-7.82594 -1.2661,-1.05079 -1.78,-0.94214 -2.9682,0.62756 -1.7365,2.29415 -1.7622,2.57988 -0.5253,5.83328 1.0771,2.83297 2.0203,3.16959 3.8248,1.3651 z m 154.5759,-6.2194 c 3.0854,-3.08537 6.7423,-8.14585 8.491,-11.75 3.0996,-6.38847 4.8798,-15.43372 3.4227,-17.39172 -0.4343,-0.58362 -5.0646,-3.14829 -10.2896,-5.69927 -5.225,-2.55098 -11.8716,-6.46098 -14.7703,-8.68888 -2.8986,-2.2279 -5.9541,-4.05073 -6.7898,-4.05073 -2.13,0 -9.4807,3.80725 -12.2849,6.36285 -3.2365,2.94957 -5.3827,7.31502 -6.212,12.63524 -1.3393,8.59116 3.3363,19.04894 8.4813,18.97011 1.9835,-0.0304 1.9944,-0.0934 0.2455,-1.41888 -1.9811,-1.50144 -1.9695,-5.62948 0.018,-6.28349 0.6531,-0.21496 2.1232,0.54491 3.2669,1.6886 1.9478,1.94774 1.9818,2.26833 0.5368,5.0625 -0.8484,1.64069 -2.0935,2.98996 -2.7669,2.99838 -0.7821,0.01 -0.6825,0.36546 0.2757,0.98469 2.5265,1.63273 10.822,1.13153 14.7898,-0.89359 4.9566,-2.52973 7.2153,-5.19501 8.2353,-9.71784 2.1244,-9.41934 -8.5994,-18.28782 -15.584,-12.88783 -1.8274,1.41284 -1.8386,1.56216 -0.1911,2.54969 1.0768,0.64544 1.7559,2.28004 1.7653,4.24926 0.02,4.10447 1.2043,5.93699 3.3146,5.12719 1.9402,-0.7445 2.2126,0.63065 0.4701,2.37312 -2.1754,2.17542 -5.8952,1.30484 -9.4,-2.2 -3.7891,-3.78909 -4.0952,-5.35496 -1.8831,-9.63273 1.9739,-3.81706 6.2682,-5.96727 11.9177,-5.96727 3.5651,0 5.2111,0.60514 7.7034,2.83201 2.665,2.38114 3.2426,3.71243 3.6282,8.36203 0.58,6.99392 -1.6242,11.96618 -7.0456,15.89337 l -3.9411,2.85498 2.6022,1.18567 c 1.4786,0.67367 3.1243,2.62935 3.8112,4.52881 0.6649,1.83872 1.5587,3.34313 1.9862,3.34313 0.4276,0 3.2161,-2.43873 6.1968,-5.4194 z m -74.0056,2.89672 C 1254.0422,314.72655 1250.7286,311 1248.5,311 c -0.825,0 -1.5,-0.39752 -1.5,-0.88337 0,-1.08334 3.4756,-2.0733 7.5,-2.13624 l 3,-0.0469 -2.3447,-1.95368 c -4.9626,-4.13512 -14.9683,-4.85391 -19.6118,-1.40887 -2.2289,1.65367 -3.0293,0.8347 8.9144,9.12086 6.6527,4.61536 8.0435,5.05005 8.9124,2.78555 z m 16.41,-12.09697 c 1.5712,-2.89459 7.1711,-5.38035 12.1208,-5.38035 2.2544,0 4.0989,-0.27274 4.0989,-0.6061 0,-1.61279 -6.5422,-8.56454 -10.5718,-11.23364 -5.42,-3.5901 -10.9056,-4.716 -14.9731,-3.07318 -2.9527,1.19259 -2.9531,1.19409 -0.5497,1.82599 5.5712,1.46478 5.1756,7.58693 -0.4903,7.58693 -3.7861,0 -5.4546,-4.05746 -3.3761,-8.20971 0.7683,-1.53466 1.5792,-3.18171 1.8022,-3.6601 0.2229,-0.4784 -2.8528,-0.68571 -6.8351,-0.46069 -6.676,0.37722 -7.4673,0.66311 -10.1515,3.66722 -2.4615,2.7549 -2.8721,3.9844 -2.6583,7.96069 0.139,2.58643 -0.09,5.67092 -0.508,6.85443 -0.733,2.07329 -0.6043,2.11644 3.5255,1.18186 2.3574,-0.53349 5.6024,-0.70982 7.2111,-0.39185 2.1055,0.41615 3.5113,0.0272 5.0179,-1.38814 1.3326,-1.25184 4.0207,-2.14143 7.3984,-2.44838 2.918,-0.26517 5.916,-0.9889 6.6624,-1.60829 1.0475,-0.86936 1.6019,-0.6684 2.4313,0.88125 2.3195,4.33417 -1.8782,8.30577 -9.8465,9.31598 -2.2211,0.28159 -2.0237,0.60733 2.5,4.12577 l 4.9116,3.82005 0.5648,-3.32005 c 0.3107,-1.82602 1.0827,-4.27388 1.7155,-5.43969 z M 1123,310.05902 c 0,-1.06754 -0.4892,-2.24333 -1.0871,-2.61287 -1.5291,-0.94503 -3.2988,1.1059 -2.5771,2.98663 0.8572,2.23382 3.6642,1.9475 3.6642,-0.37376 z m 15.8131,-4.30902 c 0.4719,-2.47612 -2.4897,-2.22284 -3.8558,0.32975 -0.9917,1.85308 -0.8604,2.04382 1.2046,1.75 1.2747,-0.18136 2.4678,-1.11725 2.6512,-2.07975 z m 18.1431,-0.27707 c 0.5741,0.35481 1.0438,0.16855 1.0438,-0.41391 0,-0.58246 1.0466,-1.05902 2.3257,-1.05902 2.5387,0 7.8993,-5.0134 6.0661,-5.67324 -0.6095,-0.21939 -1.9162,-0.98971 -2.9037,-1.71183 -1.5142,-1.10715 -2.5495,-0.99446 -6.6051,0.71898 -5.477,2.314 -6.248,3.49392 -4.5852,7.01746 0.8508,1.80284 1.5178,2.21667 2.3967,1.48719 0.6699,-0.55591 1.6876,-0.72044 2.2617,-0.36563 z m -97.4562,-2.44466 4,-1.91927 -7,0.0806 c -3.85,0.0444 -8.2668,-0.43018 -9.8151,-1.0545 -3.6226,-1.46074 -3.7399,-1.44215 -3.0039,0.47608 0.7428,1.93551 5.8512,4.30552 9.319,4.32343 1.375,0.007 4.3,-0.85075 6.5,-1.90636 z m 83.5298,-0.49242 c -0.5569,-0.67093 -0.7164,-1.51596 -0.3545,-1.87786 0.3619,-0.36189 0.085,-0.65799 -0.6156,-0.65799 -0.7213,0 -1.024,-0.65052 -0.6981,-1.5 0.3915,-1.02029 -0.054,-1.5 -1.393,-1.5 -1.3064,0 -1.9686,0.67737 -1.9686,2.01357 0,3.17078 2.0824,5.77764 4.1776,5.22974 1.3367,-0.34955 1.5779,-0.83295 0.8522,-1.70746 z m 86.4067,-1.43314 c 0.305,-0.49352 0.2603,-2.36849 -0.099,-4.16661 l -0.6538,-3.2693 -2.4514,2.84984 c -2.3267,2.705 -2.3598,2.91676 -0.6505,4.1666 2.1138,1.54569 3.0931,1.65225 3.855,0.41947 z m -150.166,-4.2937 c -3.1264,-3.12646 -3.2322,-3.15366 -5.2307,-1.34501 -2.8179,2.55015 -2.5659,3.34399 1.2102,3.8126 7.525,0.93385 7.4612,0.97304 4.0205,-2.46759 z m 15.6732,1.29617 c 0.5577,-1.04215 2.3736,-2.36874 4.0352,-2.94798 2.625,-0.91506 3.0211,-0.81959 3.0211,0.72815 0,2.30918 0.8517,3.10878 2.5978,2.43876 1.7396,-0.66757 1.8374,-2.99489 0.1522,-3.62435 -1.208,-0.45121 -0.5751,-0.81718 3.75,-2.16838 2.5075,-0.78335 1.677,-3.24598 -1.2951,-3.84039 -4.6152,-0.92306 -12.5092,-7.05612 -15.7049,-12.20163 -3.1751,-5.11233 -3.921,-11.38059 -2.1705,-18.23936 1.1615,-4.55107 -1.2822,-4.34386 -5.2282,0.44333 -5.9554,7.22483 -6.4712,20.76532 -1.0796,28.33712 2.7969,3.92788 1.1653,3.72649 -1.979,-0.24428 -5.776,-7.29407 -7.7815,-21.28395 -4.1334,-28.83448 l 1.9092,-3.95169 -2.3095,0 c -1.9523,0 -2.4997,0.7926 -3.5388,5.12402 -3.1466,13.11684 2.951,28.08046 15.4173,37.83433 4.5529,3.56228 5.2027,3.67594 6.5562,1.14683 z m 27.9252,0.55281 c 1.3044,-1.57176 0.5108,-2.65799 -1.9419,-2.65799 -1.2474,0 -1.5918,0.56599 -1.2167,2 0.6096,2.33112 1.599,2.53722 3.1586,0.65799 z m -52.0275,-2.38699 c 3.6363,-2.71217 3.7923,-4.80966 0.5176,-6.95535 -2.0577,-1.34823 -4.3287,-1.74359 -8.8929,-1.54814 -3.627,0.15532 -7.9335,-0.36869 -10.5479,-1.28344 -6.1815,-2.1629 -13.5525,-7.38985 -15.4872,-10.98233 -3.1865,-5.91703 -0.062,-11.24769 5.0039,-8.53658 2.7213,1.45639 3.6395,4.38435 1.0651,3.39647 -1.1422,-0.43832 -1.5,0.19353 -1.5,2.64903 0,4.63194 5.9271,10.29627 12.9591,12.38454 6.5532,1.94609 10.3668,2.08427 9.7925,0.3548 -0.4913,-1.47977 -3.5194,-2.47745 -9.9295,-3.27146 l -4.6779,-0.57946 1.5089,-3.6112 c 3.0656,-7.33717 -2.2073,-19.50611 -9.3031,-21.46965 -0.6325,-0.17503 -1.119,-0.0932 -1.081,0.18177 0.038,0.275 -0.4729,1.5125 -1.1352,2.75 -1.5511,2.8983 -5.6651,2.99426 -7.178,0.16742 -1.0715,-2.00212 -1.1682,-2.01178 -2.5034,-0.25 -2.1742,2.86893 -1.8649,5.59829 0.5476,4.83258 2.5127,-0.79751 2.7863,1.96056 0.3308,3.33474 -2.4956,1.39662 -0.2924,5.85486 5.9738,12.08835 8.1681,8.12535 18.1741,11.75501 27.1104,9.83421 2.8656,-0.61595 4.1346,-0.49518 4.7346,0.4506 2.3176,3.65303 -0.6569,4.98869 -10.9396,4.91234 -7.4274,-0.0552 -20.448,-4.89763 -29.0164,-10.79145 -12.3253,-8.47801 -21.1374,-23.05498 -21.1817,-35.03871 l -0.012,-3.20991 -6.4377,4.87264 c -3.54067,2.67996 -8.04067,5.45232 -9.99996,6.16081 -1.95928,0.70848 -3.56234,1.6362 -3.56234,2.06159 0,0.42539 1.4625,1.52621 3.25,2.44628 1.7875,0.92007 6.49218,3.85662 10.4548,6.52568 7.6805,5.17317 8.8217,5.66718 7.9711,3.4506 -1.033,-2.69199 0.688,-2.59178 2.476,0.14417 3.1468,4.81504 13.627,14.7017 19.083,18.00226 2.8958,1.7518 9.3054,4.35383 14.2436,5.78229 4.9382,1.42845 9.2132,2.84179 9.5,3.14074 0.2868,0.29896 3.6002,0.32827 7.3629,0.0651 4.6846,-0.32758 7.6797,-1.10359 9.5,-2.46137 z m 152.569,0.10194 c 0.7521,-1.95987 -1.9932,-4.29602 -5.1014,-4.34114 -3.3702,-0.0489 -3.6086,1.57804 -0.5642,3.84936 3.3549,2.50289 4.8442,2.63216 5.6656,0.49178 z m -190.9798,-1.4852 c -0.7285,-1.17883 -11.153,-1.14593 -11.8844,0.0375 -0.3289,0.53212 2.191,0.90932 5.9306,0.88774 3.5764,-0.0206 6.2556,-0.43699 5.9538,-0.92524 z M 1170,291.97915 c -2.3797,-1.50478 -6,-1.17106 -6,0.55307 0,2.31286 4.1692,3.58607 6,1.83231 1.3333,-1.27721 1.3333,-1.54225 0,-2.38538 z m 9.75,0.77241 c 2.8986,-2.70561 2.8715,-4.75156 -0.063,-4.75156 -2.4482,0 -7.6871,4.71144 -7.6871,6.91313 0,1.855 4.9158,0.48392 7.75,-2.16157 z m -36.3362,1.38792 c 0.2925,-0.47329 0.2751,-1.11728 -0.039,-1.4311 -0.7803,-0.78038 -3.375,0.29485 -3.375,1.39861 0,1.14261 2.7118,1.16842 3.4138,0.0325 z M 1156,293 c 1.1,-1.1 2,-2.54 2,-3.2 0,-0.93333 -0.2667,-0.93333 -1.2,0 -1.4511,1.45112 -3.1654,1.60018 -2.3,0.2 0.3399,-0.55 -0.068,-1 -0.9058,-1 -1.7639,0 -3.5318,2.92021 -2.8757,4.75 0.6639,1.85167 3.0135,1.51802 5.2815,-0.75 z m -90.5818,0.39301 c 3.4439,-1.32155 1.4961,-2.65311 -2.9829,-2.0392 -12.8954,1.76751 -28.2132,-7.24018 -34.8043,-20.46678 -2.9683,-5.95656 -3.3279,-10.6386 -1.142,-14.86582 1.9453,-3.76175 3.5224,-4.15611 12.5519,-3.13858 7.1603,0.80688 13.0909,2.90358 14.4547,5.11026 1.1023,1.78355 3.1522,1.07556 4.3224,-1.49289 0.7705,-1.69088 1.9438,-2.5 3.6254,-2.5 3.3395,0 4.9478,-3.0472 3.4007,-6.44285 -1.3798,-3.02828 -2.8827,-3.42069 -2.1338,-0.55715 0.6252,2.39078 -1.2325,2.67626 -2.514,0.38634 -0.7626,-1.36283 -1.2678,-1.41847 -3.2494,-0.35794 -2.0498,1.09704 -2.5193,0.99513 -3.7156,-0.80656 -1.3609,-2.04959 -1.395,-2.0506 -5.5503,-0.16402 -5.3315,2.42059 -8.8514,2.43454 -11.8002,0.0468 -2.3143,-1.87403 -2.3728,-1.86839 -5.1875,0.5 -5.2167,4.38959 -12.6944,2.22367 -14.2914,-4.13955 -0.7672,-3.05663 1.8895,-7.46504 4.4987,-7.46504 2.4322,0 4.2964,2.32297 3.5097,4.37325 -0.8852,2.30672 -2.4103,2.01781 -2.4103,-0.45658 0,-2.33778 -1.8159,-2.15562 -3.3902,0.34008 -1.6181,2.56523 0.4128,6.92097 3.7438,8.02941 2.2763,0.75746 3.3891,0.55347 5.5,-1.00822 4.1549,-3.07381 5.5091,-6.64905 4.1166,-10.86836 -1.2194,-3.69475 -2.8589,-4.70882 -9.2128,-5.6985 -3.7271,-0.58052 -6.7574,0.98498 -6.7574,3.49092 0,0.58253 -1.6293,3.32696 -3.6206,6.09873 -3.5098,4.88541 -3.6063,5.2562 -3.1548,12.11943 1.165,17.70976 17.8855,35.16142 39.3227,41.04233 5.2636,1.44397 14.2424,1.93919 16.8709,0.93052 z m -41.8429,-19.02293 c -6.2845,-7.61906 -9.5753,-13.69717 -9.5753,-17.6858 0,-2.21491 0.4486,-2.68428 2.5657,-2.68428 3.0288,0 6.4343,1.6421 6.4343,3.10257 0,0.6014 -0.8981,0.74717 -2.1518,0.34926 -2.0465,-0.64956 -2.1207,-0.45649 -1.5167,3.94985 0.7802,5.69258 2.7005,9.52111 7.3653,14.68448 1.971,2.18169 3.3349,4.21548 3.0308,4.51955 -0.304,0.30407 -3.0726,-2.50196 -6.1523,-6.23563 z m -66.97871,16.12795 c 3.05195,-1.95512 4.93493,-7.08447 3.79285,-10.33196 -1.52528,-4.33711 -3.65056,-3.68797 -7.22274,2.2061 -1.81021,2.98684 -4.15265,6.21013 -5.20542,7.16287 -1.05276,0.95274 -1.67693,2.11604 -1.38702,2.58511 0.70559,1.14168 7.39914,0.0583 10.02233,-1.62212 z m 68.13261,1.8978 c -0.3323,-0.33229 -1.1948,-0.36781 -1.9167,-0.0789 -0.7977,0.31922 -0.5608,0.55618 0.6042,0.60416 1.0541,0.0434 1.6448,-0.19293 1.3125,-0.52522 z m 194.1314,-3.32123 c 2.634,-1.40968 5.5208,-5.6484 4.7245,-6.93694 -0.323,-0.52266 -2.9493,-1.26926 -5.8362,-1.65911 -8.3838,-1.13217 -8.9828,-1.71607 -8.5233,-8.3091 0.2173,-3.1182 0.7536,-6.45695 1.1918,-7.41945 0.5704,-1.25319 0.3602,-1.75 -0.7406,-1.75 -1.2257,0 -1.3663,-0.596 -0.6935,-2.94169 0.7245,-2.52616 0.4876,-3.17495 -1.6767,-4.59309 -1.8976,-1.24333 -2.2366,-1.93523 -1.3719,-2.79996 0.8648,-0.86472 1.354,-0.8162 1.9798,0.19634 1.2376,2.00252 4.902,-0.28229 5.7275,-3.57117 0.8946,-3.56456 -1.3415,-7.35407 -5.6623,-9.59581 -7.3512,-3.81402 -19.3072,0.30991 -24.7521,8.53763 -5.2206,7.88884 -2.9703,20.59924 4.8053,27.14196 3.5913,3.02191 8.397,3.45168 11.1129,0.99381 1.6875,-1.52711 1.8674,-1.46341 2.8007,0.99132 1.0881,2.86184 0.5724,5.18255 -1.7535,7.89066 -0.8266,0.9625 -1.3207,1.75208 -1.098,1.75463 0.2228,0.003 3.0465,1.08065 6.275,2.39578 5.9788,2.43546 8.4423,2.37596 13.4906,-0.32581 z M 944.18045,288.75 c 0.21822,-1.53655 1.01189,-2.25968 2.50299,-2.28052 1.20089,-0.0168 3.18819,-1.30786 4.41621,-2.86903 1.87563,-2.38448 2.03705,-3.15192 1.00915,-4.79784 -1.47432,-2.36076 0.058,-4.80261 3.01364,-4.80261 2.29777,0 2.47236,-1.55778 0.26934,-2.40315 -1.18537,-0.45487 -1.49797,-1.56152 -1.18891,-4.20889 0.36903,-3.16102 0.26209,-3.37673 -0.89177,-1.79873 -0.72111,0.98617 -1.3111,2.60702 -1.3111,3.6019 0,2.27024 -2.74253,2.35185 -5.17126,0.15388 -2.45793,-2.22439 -2.30417,-5.20081 0.42126,-8.15477 l 2.25,-2.43866 -2.5,0.7554 c -4.69479,1.41859 -8.25517,4.80871 -10.73195,10.2187 -3.30458,7.21816 -2.56795,13.17442 2.22167,17.96404 3.88763,3.88763 5.25305,4.14203 5.69073,1.06028 z m 172.16165,-0.19907 c 0.3709,-0.96661 0.075,-1.26467 -0.8873,-0.89522 -0.7938,0.30462 -1.1943,0.95671 -0.89,1.44907 0.7664,1.24011 1.1327,1.12596 1.7773,-0.55385 z M 1148,287 c 0,-1.1 -0.4234,-2 -0.941,-2 -1.3423,0 -2.2882,1.82013 -1.559,3 1.0451,1.69104 2.5,1.10908 2.5,-1 z m 23.5,1 c -0.3399,-0.55 -1.068,-1 -1.618,-1 -0.55,0 -0.7219,0.45 -0.382,1 0.3399,0.55 1.068,1 1.618,1 0.55,0 0.7219,-0.45 0.382,-1 z m -59.1139,-2.59779 c -0.2994,-1.19307 -0.086,-3.83021 0.4747,-5.86031 1.1942,-4.32506 0.5952,-6.5419 -1.7678,-6.5419 -2.6063,0 -4.093,-2.07039 -4.093,-5.7 0,-3.12208 2.8013,-7.3 4.8947,-7.3 0.4943,0 0.5644,-1.4642 0.1567,-3.27195 -0.4058,-1.79957 -0.5606,-5.17457 -0.3439,-7.5 0.6117,-6.56324 -2.4535,-5.58029 -8.4789,2.71895 -2.6628,3.66763 -3.2286,5.36646 -3.2286,9.6933 0,4.28196 0.4136,5.5515 2.25,6.90671 1.507,1.11208 1.8372,1.81881 1,2.14004 -0.6875,0.26379 -1.25,1.00462 -1.25,1.64628 0,1.5669 -5.3039,1.48927 -7.2258,-0.10576 -2.3163,-1.9224 -2.8627,-6.61556 -1.3539,-11.62911 1.296,-4.30609 1.1713,-5.59846 -0.54,-5.59846 -1.1601,0 -2.8683,6.88868 -2.8747,11.59272 -0.011,7.85107 6.9981,16.9253 15.269,19.76872 5.5586,1.91094 7.7574,1.61435 7.1115,-0.95923 z M 1128,287 c 0,-0.55 -0.1984,-1 -0.441,-1 -0.2425,0 -0.7191,0.45 -1.059,1 -0.3399,0.55 -0.1415,1 0.441,1 0.5824,0 1.059,-0.45 1.059,-1 z m -3,-1 c 0,-0.55 -0.1984,-1 -0.441,-1 -0.2425,0 -0.7191,0.45 -1.059,1 -0.3399,0.55 -0.1415,1 0.441,1 0.5824,0 1.059,-0.45 1.059,-1 z m 44.5,-2 c 0.3399,-0.55 0.1415,-1 -0.441,-1 -0.5824,0 -1.059,0.45 -1.059,1 0,0.55 0.1984,1 0.441,1 0.2425,0 0.7191,-0.45 1.059,-1 z m 29.2775,-1.5567 c 1.2224,-0.85619 2.2225,-2.23885 2.2225,-3.07258 0,-1.21365 -0.5253,-1.10266 -2.6349,0.5567 -3.1374,2.46792 -5.4411,2.60174 -9.4148,0.5469 -2.5787,-1.33352 -2.9503,-1.33978 -2.9503,-0.0497 0,3.47737 8.7266,4.85605 12.7775,2.01868 z M 1149,282.03138 c 0,-0.53273 -0.675,-0.70959 -1.5,-0.39301 -0.825,0.31659 -1.5,0.75246 -1.5,0.96862 0,0.21615 0.675,0.39301 1.5,0.39301 0.825,0 1.5,-0.43588 1.5,-0.96862 z m 24,-0.90894 c 0,-0.48265 -0.675,-1.43775 -1.5,-2.12244 -1.2165,-1.00961 -1.5,-0.96975 -1.5,0.21089 0,0.80068 0.3,1.75578 0.6667,2.12244 0.9497,0.94969 2.3333,0.82463 2.3333,-0.21089 z m 166,-0.6721 c 0,-1.86379 -3.5443,-6.76036 -7.0904,-9.79569 -5.7714,-4.94012 -16.8449,-8.38597 -19.2429,-5.98799 -0.9673,0.96724 11.8127,10.10148 18.8333,13.46081 6.0278,2.88423 7.5,3.34021 7.5,2.32287 z m -163.1329,-4.34545 c -1.3019,-1.64683 -2.7204,-3.01913 -3.1523,-3.04956 -1.0136,-0.0714 0.7991,3.31575 2.8977,5.41431 2.6373,2.63734 2.8257,0.88756 0.2546,-2.36475 z m 48.9513,-0.0316 c 0.042,-3.04554 -0.4694,-4.26982 -2.2792,-5.45561 -2.2151,-1.45143 -2.3869,-1.39181 -3.3913,1.17672 -1.9782,5.05868 -1.8065,6.52723 0.8521,7.28948 4.4063,1.26332 4.7625,1.04076 4.8184,-3.01059 z m -92.8536,0.99246 c 1.421,-2.65505 1.3708,-2.76844 -1.4648,-3.31049 -2.0524,-0.39235 -2.5,-0.085 -2.5,1.71676 0,3.84822 2.2699,4.76066 3.9648,1.59373 z m 100.825,0.0213 c 3.2641,-1.68292 8.2102,-5.59015 8.2102,-6.48573 0,-0.53178 -7.3758,0.19091 -9.1806,0.89953 -1.333,0.52336 -1.7468,-0.009 -2,-2.57163 -0.3319,-3.35804 -3.2101,-6.15273 -7.6681,-7.44556 -2.0798,-0.60313 -2.2679,-0.4265 -1.643,1.54244 0.4561,1.43719 0.2258,2.52765 -0.6513,3.0834 -0.9183,0.58185 -0.2961,0.8648 1.9244,0.87516 1.8047,0.008 3.4483,0.57781 3.6523,1.26531 0.204,0.6875 0.9233,3.3875 1.5985,6 0.6753,2.6125 1.4122,4.75 1.6376,4.75 0.2254,0 2.0794,-0.86081 4.12,-1.91292 z M 1011,277.53047 c 0,-0.66035 -13.38495,-9.54165 -20.12173,-13.35135 -5.28262,-2.98736 -9.87964,-4.11791 -9.87718,-2.42912 6e-4,0.4125 3.34084,2.25157 7.42275,4.08683 4.08191,1.83525 10.71892,5.30014 14.74886,7.69976 7.9824,4.75302 7.8273,4.67387 7.8273,3.99388 z M 1155,273.5 c 0,-0.825 -0.675,-1.5 -1.5,-1.5 -1.5616,0 -1.984,1.1827 -0.8333,2.33333 1.1506,1.15064 2.3333,0.72824 2.3333,-0.83333 z m 63.9847,-4.25 c 0.023,-1.84127 -3.5718,-1.51993 -5.5927,0.5 -1.6676,1.66687 -1.6116,1.77574 1.1786,2.29188 2.9091,0.53814 4.3847,-0.39516 4.4141,-2.79188 z m -107.5741,0.25 c -0.5206,-2.07458 -0.2686,-2.5 1.481,-2.5 2.3725,0 2.7244,-1.7753 0.858,-4.32782 -1.1465,-1.56783 -1.4376,-1.57901 -3.5,-0.13443 -2.4746,1.73323 -3.0499,6.262 -1.0496,8.26225 1.9401,1.94005 2.8845,1.38469 2.2106,-1.3 z M 1137,270.33607 c 0,-0.73484 -0.9445,-1.33607 -2.0988,-1.33607 -1.1543,0 -3.4043,-1.39759 -5,-3.10576 l -2.9012,-3.10575 0,4.02242 c 0,4.46825 0.7351,5.04895 6.25,4.93721 2.4243,-0.0491 3.75,-0.54833 3.75,-1.41205 z m 43.4913,-0.0861 c -2.962,-7.17294 -2.9474,-16.37926 0.036,-22.66629 2.4632,-5.19073 9.3131,-11.6141 15.4607,-14.49801 4.8818,-2.29007 6.7125,-2.57679 16.012,-2.50774 8.5543,0.0635 11.9824,0.57074 18.5,2.73723 4.4,1.46261 8.4312,2.66502 8.9582,2.67204 0.527,0.007 -0.9951,-1.97755 -3.3826,-4.41016 -8.3826,-8.54129 -21.7006,-12.28155 -32.5257,-9.13461 -7.1422,2.0763 -13.8501,6.33287 -13.0922,8.30781 0.644,1.67839 -3.1847,5.16862 -5.7224,5.21646 -1.9262,0.0363 -5.4484,5.05964 -6.3338,9.03327 -0.3064,1.375 -1.0846,3.5832 -1.7293,4.90711 -1.876,3.85229 -1.4936,16.19135 0.6009,19.3873 1.9812,3.02328 4.3643,3.73087 3.2182,0.95559 z M 960.88235,265.35886 C 962.26086,262.33338 962.26802,262 960.95455,262 959.67222,262 955,266.56341 955,267.81587 c 0,1.89577 4.81556,-0.11565 5.88235,-2.45701 z m 282.22145,0.34494 c -1.2835,-1.28349 -2.5851,-0.2915 -1.6348,1.24598 0.368,0.59556 1.1273,0.79971 1.6872,0.45366 0.683,-0.42212 0.6658,-0.98146 -0.052,-1.69964 z m -86.56,-1.63298 c -0.9833,-1.59091 -2.5669,-0.29466 -1.8673,1.52842 0.3847,1.00267 0.929,1.19522 1.5692,0.55511 0.539,-0.53905 0.6732,-1.47664 0.2981,-2.08353 z m -11.1301,-3.9374 c 5.7222,-1.68955 6.3701,-2.66321 3.4126,-5.12809 -3.2247,-2.68751 -3.9091,-2.5254 -7.3263,1.7352 -4.3037,5.36595 -5.6093,8.05101 -4.1626,8.5605 0.6394,0.22517 1.6812,-0.53924 2.3151,-1.6987 0.6662,-1.21865 3.097,-2.68225 5.7612,-3.46891 z M 1121,263.83333 C 1121,263.375 1120.5766,263 1120.059,263 c -0.5175,0 -1.1727,0.375 -1.456,0.83333 -0.2833,0.45834 0.1402,0.83334 0.941,0.83334 0.8008,0 1.456,-0.375 1.456,-0.83334 z m 10.1125,-2.12083 c -0.8167,-0.81667 -1.1125,-0.70476 -1.1125,0.42083 0,1.98786 1.3447,3.33256 1.8417,1.84167 0.2108,-0.6325 -0.1173,-1.65063 -0.7292,-2.2625 z M 1163,262.87756 c 0,-1.77324 -0.2468,-1.91763 -1.5,-0.87756 -0.825,0.68469 -1.5,1.63979 -1.5,2.12244 0,0.48266 0.675,0.87756 1.5,0.87756 0.8622,0 1.5,-0.90249 1.5,-2.12244 z m 82.393,0.54065 c 0.3339,-0.86998 0.607,-2.85748 0.607,-4.41666 0,-2.16616 -0.6487,-3.08766 -2.75,-3.90645 -2.6563,-1.03507 -2.6357,-1.05144 0.6052,-0.48076 l 3.3553,0.59079 -0.7305,-4.35256 c -0.4018,-2.39391 -1.1068,-5.34869 -1.5667,-6.56617 -2.3528,-6.22881 -33.8637,-15.73604 -38.1034,-11.4963 -0.6059,0.60586 -2.3196,0.85796 -3.8083,0.56021 -1.7124,-0.34248 -4.266,0.25409 -6.9511,1.62393 -4.9204,2.5102 -4.9163,3.42124 0.01,2.00866 11.0139,-3.15875 19.9404,1.88521 19.9404,11.26744 0,1.84231 -0.5008,3.85045 -1.1129,4.46253 -1.4211,1.42117 -0.1307,3.59457 1.7141,2.88669 2.1749,-0.83461 1.6454,1.19807 -0.6292,2.41543 -4.2678,2.28404 -0.6278,2.76143 6.2948,0.82558 10.7133,-2.9959 21.0855,-1.45801 20.655,3.06252 -0.328,3.4442 1.3388,4.46614 2.4712,1.51512 z M 1117.5,262 c 0.3399,-0.55 0.1415,-1 -0.441,-1 -0.5824,0 -1.059,0.45 -1.059,1 0,0.55 0.1984,1 0.441,1 0.2425,0 0.7191,-0.45 1.059,-1 z m 6.5,0 c 0,-0.55 -0.7016,-1 -1.559,-1 -0.8575,0 -1.2809,0.45 -0.941,1 0.3399,0.55 1.0415,1 1.559,1 0.5176,0 0.941,-0.45 0.941,-1 z m 30.15,-0.5 c 0,-0.5225 -0.4837,-1.11125 -1.075,-1.30833 -0.5912,-0.19709 -1.075,0.39166 -1.075,1.30833 0,0.91667 0.4838,1.50542 1.075,1.30833 0.5913,-0.19708 1.075,-0.78583 1.075,-1.30833 z m 6.4904,-4.19291 c -1.201,-1.20105 -2.9319,1.49469 -2.1674,3.37569 0.6776,1.66742 0.8252,1.63095 1.7898,-0.44236 0.5783,-1.24277 0.7482,-2.56277 0.3776,-2.93333 z m -123.8208,0.86458 c 0.2122,-1.44221 -0.2077,-2.17167 -1.25,-2.17167 -1.0211,0 -1.5696,0.90283 -1.5696,2.58333 0,3.13272 2.3485,2.78984 2.8196,-0.41166 z M 1116.2878,254.5 c -0.4049,-3.924 -0.2241,-5.5 0.6313,-5.5 0.6594,0 0.9276,0.43901 0.596,0.97557 -0.8106,1.31166 3.6571,9.00701 5.2349,9.01673 2.1777,0.0134 1.3557,-3.10785 -1.75,-6.64508 -1.65,-1.87925 -3,-4.4996 -3,-5.823 0,-3.18152 -1.6335,-4.0775 -2.9498,-1.61797 -2.0928,3.91046 -0.924,15.09375 1.5775,15.09375 0.1253,0 -0.028,-2.475 -0.3399,-5.5 z M 977,258.094 c 0,-0.4983 -2.025,-1.59598 -4.5,-2.4393 -5.48172,-1.86781 -5.77177,-1.37387 -0.75,1.27721 4.23831,2.23748 5.25,2.46142 5.25,1.16209 z m 159.2994,0.27325 C 1136.8701,257.79659 1132.871,254 1131.6993,254 c -0.8492,0 -1.7282,3.14424 -1.1435,4.09024 0.6393,1.03446 4.7862,1.23446 5.7436,0.27701 z M 1158,255.44098 c 0,-1.65007 -1.5804,-1.92885 -2.5,-0.44098 -0.8155,1.31952 0.3802,3.19207 1.5691,2.45729 0.512,-0.31643 0.9309,-1.22377 0.9309,-2.01631 z M 1030.1276,255.25 c 1.2438,-1.58606 1.2085,-1.62143 -0.3776,-0.37756 -0.9625,0.75485 -1.75,1.54235 -1.75,1.75 0,0.82304 0.8212,0.29331 2.1276,-1.37244 z m -37.99972,-0.65965 C 995.30398,253.26264 1003.9913,247 1002.6569,247 c -0.3399,0 -3.08019,1.575 -6.08945,3.5 -6.20546,3.96958 -9.30728,4.3515 -12.70667,1.56451 -2.23435,-1.83183 -2.26872,-2.02908 -0.64191,-3.68316 1.63567,-1.66307 1.82929,-1.65409 4,0.18549 L 989.5,250.5 l -1.87128,-2.21275 c -2.34167,-2.76899 -1.46298,-5.54472 1.61681,-5.10739 1.48939,0.2115 2.36812,1.12343 2.58936,2.68721 0.29419,2.07938 0.73811,2.30163 3.65254,1.82868 3.44596,-0.5592 11.51257,-5.32845 11.51257,-6.80661 0,-0.4648 -2.1131,0.495 -4.6958,2.13288 -2.58266,1.63789 -5.62016,2.95823 -6.74998,2.93409 -1.32855,-0.0284 -0.77721,-0.50025 1.56071,-1.33573 5.10197,-1.82326 9.86287,-5.43176 10.95447,-8.30302 1.3415,-3.52824 1.1591,-4.44339 -0.8194,-4.1112 -3.1586,0.53035 -2.2682,-8.69551 1.5968,-16.54644 3.1737,-6.44674 6.142,-9.39074 4.1284,-4.09462 -1.8308,4.81542 -0.8649,3.94565 1.5689,-1.4127 3.6604,-8.059 8.8994,-14.58857 14.9023,-18.57301 2.9659,-1.96867 5.9752,-3.57939 6.6873,-3.57939 0.7121,0 4.6961,-1.7696 8.8533,-3.93244 4.1573,-2.16284 10.9234,-4.8691 15.0358,-6.01391 l 7.4772,-2.08146 -5.9899,0.61583 c -13.3109,1.36853 -30.2648,7.7574 -44.0101,16.58471 -8.6575,5.55992 -19.43679,14.44921 -20.21326,16.6692 -0.31896,0.91194 -1.75146,2.98208 -3.18333,4.6003 l -2.60341,2.94224 2.71482,-1.69224 c 3.94987,-2.46208 4.52175,-2.07758 1.57328,1.05777 -6.95158,7.39218 -11.12594,18.21658 -7.5381,19.54677 0.93078,0.34508 0.83288,0.90205 -0.38334,2.18095 -1.38009,1.45123 -2.00027,1.52413 -4,0.4702 -1.30166,-0.68603 -2.66614,-1.7075 -3.03216,-2.26992 C 979.28038,234.28998 969,246.63643 969,250.89089 c 0,0.46057 2.08579,1.63396 4.63509,2.60755 4.26926,1.63045 4.70728,1.64117 5.54969,0.13586 C 980.44533,251.38181 982,251.58377 982,254 c 0,1.60527 0.66667,2 3.37788,2 1.85783,0 4.89533,-0.63434 6.75,-1.40965 z M 1130.5,249.95 c 0,-1.6225 -0.3375,-2.95 -0.75,-2.95 -0.4125,0 -0.75,0.39375 -0.75,0.875 0,0.48125 -0.2845,2.39375 -0.6322,4.25 -0.5332,2.84608 -0.4157,3.17127 0.75,2.075 0.7602,-0.715 1.3822,-2.6275 1.3822,-4.25 z m -39.1512,-1.88663 c -0.4472,-4.27849 -0.1478,-7.38165 1.0718,-11.11028 0.9307,-2.84551 1.5134,-5.35243 1.2949,-5.57093 -0.2185,-0.21851 -2.1024,0.84362 -4.1864,2.36028 -3.7533,2.73159 -3.7903,2.8259 -3.9267,10.01392 -0.1163,6.13338 0.1359,7.34319 1.63,7.81739 0.9722,0.30857 1.7676,0.9807 1.7676,1.49364 0,0.51293 0.6681,0.93261 1.4847,0.93261 1.2158,0 1.3723,-1.07491 0.8641,-5.93663 z m 11.3338,-2.71408 c -0.9709,-0.97091 -8.7555,6.7237 -8.0148,7.92216 0.3217,0.52054 2.4185,-0.88714 4.6595,-3.12819 2.2411,-2.24105 3.751,-4.39833 3.3553,-4.79397 z m 64.4472,3.38053 c -1.1795,-1.17952 -2.5477,2.78492 -1.5297,4.4322 0.4813,0.77875 1.0236,0.38416 1.5951,-1.16057 0.5092,-1.37664 0.4823,-2.72394 -0.065,-3.27163 z m -86.2065,0.68129 c 2.3547,-1.9814 3.0767,-3.40889 3.0767,-6.08334 0,-3.77665 -1.5661,-4.13283 -3.4286,-0.77973 -0.5893,1.06095 -1.8589,3.00735 -2.8214,4.32534 -1.8964,2.59685 -2.3044,5.12662 -0.8267,5.12662 0.5078,0 2.3078,-1.165 4,-2.58889 z M 1152.5,251 c -0.3399,-0.55 -1.2243,-1 -1.9654,-1 -0.798,0 -1.1581,-0.72357 -0.8833,-1.77453 0.2552,-0.976 -0.2341,-3.1135 -1.0875,-4.75 -0.8533,-1.63651 -1.5692,-3.65047 -1.5909,-4.47547 -0.05,-1.91521 -2.9529,-5.3982 -5.2229,-6.26724 -2.0279,-0.7764 -2.2745,-2.80828 -0.55,-4.53276 1.5057,-1.50567 0.6136,-1.52784 -2.5979,-0.0645 -4.0776,1.85786 -3.8642,3.55927 0.7251,5.78089 5.258,2.54535 7.8743,6.7714 7.6538,12.36278 -0.2319,5.88071 -0.3179,5.72088 3.078,5.72088 1.7847,0 2.8016,-0.41658 2.441,-1 z m -78.5281,-1.94747 c 0.8409,-1.57132 0.558,-2.43172 -1.4648,-4.45455 -3.1653,-3.16524 -3.1816,-6.01436 -0.053,-9.14343 2.703,-2.70297 5.1366,-3.0536 8.9944,-1.29589 2.0684,0.94245 2.8703,0.86389 4.297,-0.42101 0.9648,-0.86883 4.1166,-2.76391 7.0041,-4.21129 2.8875,-1.44739 5.25,-3.05793 5.25,-3.57898 0,-0.52106 -1.9882,-0.94738 -4.4182,-0.94738 -2.43,0 -5.0972,-0.26055 -5.927,-0.57899 -1.116,-0.42823 -1.3743,-0.0643 -0.9919,1.39777 0.6503,2.48705 -1.261,6.18122 -3.1981,6.18122 -1.0694,0 -1.4648,-1.21471 -1.4648,-4.5 0,-5.5547 -1.3294,-5.78052 -8.1737,-1.38851 -5.9258,3.80258 -8.8643,7.7526 -9.5455,12.83168 -0.7017,5.23178 2.2259,10.39746 5.4361,9.59175 1.7038,-0.42762 2.0929,-0.20286 1.6495,0.95271 -0.8518,2.21967 1.3846,1.84621 2.6055,-0.4351 z m 24.0497,-15.74488 c 2.7565,-4.88414 2.8491,-5.30881 0.9341,-4.28393 -3.3622,1.79939 -5.9259,8.62639 -5.8118,15.47628 l 0.1,6 0.859,-5.88539 c 0.4922,-3.37252 2.1654,-8.20022 3.9187,-11.30696 z m 23.3235,15.14922 c -0.3257,-0.84872 -0.8066,-1.32866 -1.0688,-1.06653 -0.2621,0.26213 -0.18,0.95654 0.1826,1.54313 0.986,1.59546 1.5624,1.28551 0.8862,-0.4766 z m 42.6396,-0.20687 c -0.036,-1.77777 -1.7466,-3.44427 -2.4187,-2.35676 -0.3762,0.60872 -0.4059,1.55676 -0.066,2.10676 0.7209,1.16642 2.5071,1.34614 2.4847,0.25 z M 1125,246.44098 c 0,-0.85746 -0.4573,-1.27636 -1.0163,-0.9309 -0.559,0.34546 -0.7574,1.04702 -0.441,1.55902 0.8572,1.38704 1.4573,1.12841 1.4573,-0.62812 z m -23.9414,-2.60834 c 4.0434,-3.24934 4.8181,-5.95934 3.3111,-11.58264 -0.9766,-3.64431 -3.0133,-2.60615 -5.7803,2.94634 -2.297,4.60966 -3.5348,11.80366 -2.0308,11.80366 0.3073,0 2.3323,-1.42531 4.5,-3.16736 z m 58.0142,-4.1598 c -0.7637,-0.76379 -1.0728,-0.055 -1.0728,2.46049 0,4.59686 1.4045,6.01082 1.8228,1.83508 0.1776,-1.7725 -0.1599,-3.7055 -0.75,-4.29557 z M 1131.5,245 c -0.3399,-0.55 -1.068,-1 -1.618,-1 -0.55,0 -0.7219,0.45 -0.382,1 0.3399,0.55 1.068,1 1.618,1 0.55,0 0.7219,-0.45 0.382,-1 z m -88.72,-2.75 c 1.1008,-0.9625 2.2644,-3.2125 2.5857,-5 0.5581,-3.10403 0.4394,-3.25376 -2.6407,-3.33381 -2.5123,-0.0653 -2.0029,-0.34709 2.3049,-1.27515 12.8822,-2.77534 19.0914,-13.58976 12.3812,-21.56431 -2.871,-3.41202 -7.2854,-4.26675 -7.05,-1.36504 0.1607,1.97983 -3.0735,2.97594 -4.6249,1.42447 -1.9084,-1.90835 1.1682,-4.13616 5.7119,-4.13616 3.1661,0 4.7705,0.60373 6.5019,2.44673 1.2642,1.34571 3.2205,2.58321 4.3474,2.75 1.4831,0.21951 2.4844,1.68417 3.6258,5.30327 0.8672,2.75 1.9193,4.90408 2.3378,4.78684 6.1082,-1.7109 8.739,-2.75751 8.739,-3.47667 0,-0.48029 -0.8748,-3.47 -1.944,-6.6438 -1.9157,-5.68681 -1.9006,-10.71694 0.043,-14.35063 1.2631,-2.36141 1.1388,-2.81574 -0.7704,-2.81574 -1.8122,0 -5.3287,-2.76518 -5.3287,-4.19017 0,-0.48411 0.9,-0.39853 2,0.19017 1.4604,0.7816 2.607,0.73674 4.25,-0.16625 1.2375,-0.68014 3.825,-1.34724 5.75,-1.48245 5.8921,-0.41384 14,-1.58228 14,-2.01756 0,-0.22649 -1.7647,-2.19424 -3.9216,-4.37277 -4.0869,-4.12793 -5.8761,-4.7633 -7.8513,-2.7881 -0.8719,0.87192 -1.7957,0.88909 -3.6002,0.0669 -2.6093,-1.18891 -11.4995,0.22858 -20.7927,3.31527 -4.5183,1.50074 -16.8342,8.79366 -16.8342,9.96845 0,0.31191 1.6875,0.30439 3.75,-0.0167 l 3.75,-0.58384 -2.5,1.77584 c -3.8079,2.70491 -8.1162,7.47652 -9.1095,10.08934 -1.333,3.50593 -1.0749,8.58068 0.5477,10.77075 1.4115,1.90518 1.4642,1.90592 2.8473,0.0396 1.0943,-1.47657 1.5892,-1.61027 2.2146,-0.5983 1.1442,1.85132 -2.1814,3.99979 -6.1912,3.99979 -2.3047,0 -3.3089,0.46475 -3.3089,1.53138 0,0.84227 -0.675,1.79041 -1.5,2.10699 -1.7851,0.68502 -2.0046,4.93174 -0.309,5.97966 0.655,0.40484 1.3675,0.2064 1.5833,-0.44098 0.2158,-0.64738 0.8352,-1.17705 1.3764,-1.17705 0.5413,0 0.709,0.8666 0.3729,1.92578 -0.3976,1.25271 0.016,2.32762 1.1826,3.07551 1.6373,1.0494 1.6411,1.0995 0.044,0.57422 -0.9625,-0.31653 -2.4005,-0.83927 -3.1956,-1.16164 -1.2148,-0.49254 -1.2626,-0.10104 -0.2991,2.45163 0.8834,2.34037 1.8466,3.10626 4.1957,3.33613 2.2829,0.2234 3.049,0.80091 3.049,2.29837 0,1.43093 -0.6402,1.97741 -2.25,1.9206 -2.244,-0.0792 -2.8469,0.64917 -1.5833,1.91273 1.2059,1.20594 4.0768,0.69719 6.1133,-1.08333 z m 70.22,-0.34055 c 1.1181,-0.6326 0.8311,-0.85637 -1.1276,-0.87904 -1.4451,-0.0167 -3.2416,0.7095 -3.9921,1.61384 -1.2217,1.47199 -1.1035,1.56408 1.1275,0.87903 1.3707,-0.42086 3.1672,-1.14709 3.9922,-1.61383 z M 1163,243 c 0,-0.55 -0.4766,-1 -1.059,-1 -0.5825,0 -0.7809,0.45 -0.441,1 0.3399,0.55 0.8165,1 1.059,1 0.2426,0 0.441,-0.45 0.441,-1 z m -40,-1 c 0,-0.55 -0.7016,-1 -1.559,-1 -0.8575,0 -1.2809,0.45 -0.941,1 0.3399,0.55 1.0415,1 1.559,1 0.5176,0 0.941,-0.45 0.941,-1 z m 16,-2.5 c -2.366,-2.51848 -5,-3.32551 -5,-1.53194 0,0.98105 4.7272,3.91839 6.4243,3.9919 0.5084,0.022 -0.1326,-1.08496 -1.4243,-2.45996 z m -75.9934,-1.80902 c 0.01,-2.81565 2.8083,-7.03764 7.1024,-10.70979 3.9312,-3.36186 2.8845,-3.88425 -1.9171,-0.95679 -1.9101,1.16452 -4.1196,3.80435 -5.2281,6.24626 -2.0585,4.53474 -2.6104,9.247 -0.9638,8.22934 0.55,-0.33992 1.003,-1.60398 1.0066,-2.80902 z M 1078.0818,239 c 3.1945,0 4.0709,-2.34368 1.2773,-3.41569 -2.3746,-0.91123 -5.1921,0.23509 -6.4765,2.63504 -0.9542,1.78297 -0.87,1.98981 0.5829,1.43228 0.9339,-0.3584 3.0113,-0.65163 4.6163,-0.65163 z m 33.6357,0.19577 c 0.9165,-0.58235 0.7347,-1.56745 -0.7353,-3.98469 -2.2688,-3.73063 -4.5148,-4.32819 -3.6125,-0.96108 0.3317,1.2375 0.6091,3.0375 0.6166,4 0.014,1.83578 1.67,2.25546 3.7312,0.94577 z M 1126,238 c 0,-2.28944 -0.3753,-2.40467 -3.0937,-0.94983 -2.3019,1.23192 -1.6306,2.94983 1.1527,2.94983 1.2743,0 1.941,-0.68694 1.941,-2 z m 6,-0.5 c 0,-0.825 -0.45,-1.5 -1,-1.5 -0.55,0 -1,0.675 -1,1.5 0,0.825 0.45,1.5 1,1.5 0.55,0 1,-0.675 1,-1.5 z m 28.7456,-7.58817 c -2.0122,-4.93148 -2.6674,-2.21177 -0.8644,3.58817 1.3051,4.19789 1.6084,4.57905 1.8909,2.37597 0.185,-1.44322 -0.2769,-4.12709 -1.0265,-5.96414 z m -42.9316,-1.67276 c -0.2954,-2.5496 -0.5803,-2.69274 -4.814,-2.41939 -7.7681,0.50155 -8.916,1.18309 -7.0263,4.17196 0.751,1.18796 1.1958,1.23886 2.1847,0.25 1.9922,-1.99227 4.6646,-1.44142 6.4849,1.33675 1.4542,2.21931 1.8145,2.35503 2.587,0.9745 0.4937,-0.88214 0.7563,-2.82336 0.5837,-4.31382 z m 40.186,4.31995 c 0,-2.22691 -1.566,-2.67016 -1.7303,-0.48974 -0.08,1.0619 0.2766,1.93072 0.7924,1.93072 0.5159,0 0.9379,-0.64844 0.9379,-1.44098 z m -32.173,-3.56885 c 0.1798,-1.8457 0.042,-4.87597 -0.3068,-6.73394 -0.5543,-2.95496 -0.9711,-3.33917 -3.3269,-3.06718 -2.5548,0.29496 -2.7042,0.61282 -2.9055,6.18175 -0.2019,5.58468 -0.125,5.79181 1.5787,4.25 2.5468,-2.30484 3.2703,-2.01401 2.5114,1.00958 -0.4995,1.99035 -0.3217,2.51908 0.731,2.17299 0.7651,-0.25157 1.5382,-1.96751 1.7181,-3.8132 z M 1012,224.80887 c 0,-1.54488 -0.45,-2.80887 -1,-2.80887 -0.55,0 -1,1.3132 -1,2.91821 0,1.60502 -0.2617,3.74252 -0.5816,4.75 -0.5323,1.67622 -0.4473,1.66694 1,-0.10934 0.8699,-1.06762 1.5816,-3.20512 1.5816,-4.75 z m 122.3469,1.12035 c 1.5658,-2.78781 2.6139,-5.3017 2.3292,-5.58643 -1.0152,-1.01526 -7.6955,-2.12037 -8.1706,-1.35166 -0.6179,0.99978 1.5666,12.00921 2.3826,12.00785 0.3365,-5.6e-4 1.893,-2.28195 3.4588,-5.06976 z M 1028.7679,227 c -0.6869,-1.1 -1.9282,-1.98503 -2.7584,-1.96673 -1.071,0.0236 -0.8238,0.60455 0.8513,2 2.9926,2.49306 3.4795,2.48456 1.9071,-0.0333 z m 34.7873,-0.061 c 1.5963,-1.76389 1.6547,-2.19422 0.405,-2.98469 -2.3939,-1.51421 -3.4357,-1.11216 -5.3011,2.04574 -1.7677,2.99248 -1.7662,3 0.6294,3 1.3208,0 3.2409,-0.92747 4.2667,-2.06105 z m 79.4119,-4.16669 c -3.0267,-2.4509 -4.4192,-2.22491 -6.0245,0.97774 -0.7581,1.5125 -1.5188,3.01533 -1.6904,3.33962 -0.1716,0.32429 1.9865,-0.11569 4.7958,-0.97774 5.103,-1.5659 5.1057,-1.569 2.9191,-3.33962 z m -34.3952,-0.36728 c 4.1743,-2.44628 5.6891,-4.40498 3.4067,-4.40498 -1.4914,0 -8.9786,5.11422 -8.9786,6.13289 0,1.32403 0.7735,1.08416 5.5719,-1.72791 z m 9.4281,1.90344 c 0,-0.97145 -4.458,-2.29784 -6.0378,-1.79643 -3.3567,1.0654 -2.1553,2.35809 2.0378,2.19247 2.2,-0.0869 4,-0.26512 4,-0.39604 z m 35,-0.68598 c 0,-0.75765 -0.6349,-1.9045 -1.411,-2.54855 -1.9024,-1.57888 -3.1999,0.48511 -1.5526,2.46991 1.5244,1.83689 2.9636,1.87507 2.9636,0.0786 z m -59.1662,-1.74629 c -1.8403,-1.1666 -8.4981,-1.1308 -7.2838,0.0392 1.1498,1.10785 5.4428,1.83873 7.2838,1.24008 1.1118,-0.36152 1.1118,-0.57449 0,-1.27925 z m 8.0936,-3.51101 c 1.1399,-1.44917 2.0657,-3.58667 2.0573,-4.75 -0.012,-1.61307 -0.2251,-1.78384 -0.8991,-0.71942 -1.0604,1.67464 -4.4371,0.66713 -3.8416,-1.14625 0.2256,-0.68721 1.613,-1.39186 3.0831,-1.56589 2.946,-0.34876 3.1304,-0.85017 1.6978,-4.61802 -1.131,-2.97483 -6.4912,-6.5564 -9.8204,-6.56182 -5.3286,-0.009 -9.1329,7.97674 -5.9039,12.39264 1.2161,1.6632 1.5131,1.58005 4.5761,-1.28119 1.8925,-1.76783 2.9735,-3.54855 2.5602,-4.21724 -0.4422,-0.71555 -0.1849,-0.98254 0.6739,-0.69935 2.9275,0.96527 2.2065,9.36587 -0.8615,10.03857 -7.9504,1.74321 -13.2436,-9.31241 -7.1143,-14.85933 2.1609,-1.95556 8.6496,-2.50102 12.615,-1.06045 1.784,0.6481 2.25,0.4573 2.25,-0.92126 0,-0.95626 0.6937,-2.50522 1.5416,-3.44215 1.4178,-1.56655 1.2152,-1.83415 -2.5202,-3.32874 -6.4443,-2.57851 -20.7488,-1.70669 -21.0883,1.28528 -0.037,0.32421 -0.1876,6.10198 -0.3352,12.83948 l -0.2683,12.25 5.5852,0.0451 c 3.0719,0.0248 6.9352,0.66326 8.5852,1.41879 4.2981,1.96805 5.1095,1.84801 7.4274,-1.09875 z M 1157,220 c 0,-0.55 -0.45,-1 -1,-1 -0.55,0 -1,0.45 -1,1 0,0.55 0.45,1 1,1 0.55,0 1,-0.45 1,-1 z m -48.3236,-2.83027 c 2.006,-2.00597 4.2625,-3.02657 7.7479,-3.5043 2.7047,-0.37072 5.1388,-0.8952 5.4091,-1.16551 0.7223,-0.72229 -1.1761,-4.39602 -4.8991,-9.48035 l -3.2807,-4.48042 -0.9101,2.73042 c -0.5273,1.58176 -1.6113,2.69722 -2.5768,2.65148 -1.0394,-0.0492 -1.1962,-0.26879 -0.4167,-0.58333 1.3345,-0.53849 1.7579,-2.41792 0.5,-2.2193 -3.7447,0.59127 -4.5525,-2.68061 -1,-4.05048 2.1071,-0.81252 2.1302,-0.91585 0.3641,-1.62693 -4.0334,-1.6239 -7.2973,3.73289 -4.1762,6.85399 0.8821,0.88214 1.1058,1.69043 0.5217,1.88513 -0.6836,0.22787 -0.6482,1.41464 0.1068,3.58036 1.0859,3.1152 0.8914,4.4136 -1.5711,10.48951 -1.0723,2.6456 0.9874,2.11345 4.1811,-1.08027 z M 1149,219.21561 c 0,-0.94413 -5.358,-4.21561 -6.9043,-4.21561 -1.9663,0 -1.1517,2.66737 1.1543,3.77951 2.6893,1.29697 5.75,1.52911 5.75,0.4361 z m -25.2911,-3.59018 c -0.206,-0.61899 -1.0123,-1.23737 -1.7918,-1.37418 -1.9501,-0.3423 -4.3063,1.30998 -3.5691,2.50284 0.8242,1.33358 5.8298,0.27973 5.3609,-1.12866 z M 1152,217.09878 c 0,-1.35834 -7.043,-5.23716 -8.8703,-4.88523 -1.0264,0.19765 0,1.2722 2.8867,3.00796 4.8439,2.91744 5.9836,3.27502 5.9836,1.87727 z m -12.6701,-1.51602 c 0.7116,-1.8545 -1.3783,-2.58276 -7.4117,-2.58276 -3.6222,0 -4.9182,0.38083 -4.9182,1.44521 0,1.00487 1.4473,1.55933 4.75,1.81975 2.6125,0.206 5.2644,0.45566 5.893,0.55479 0.6287,0.0991 1.3878,-0.45751 1.6869,-1.23699 z m 14.2257,-2.13832 c -0.9435,-1.43988 -1.9654,-2.36797 -2.271,-2.06241 -0.3055,0.30555 0.2164,1.73364 1.1598,3.17353 0.9435,1.43988 1.9654,2.36797 2.271,2.06241 0.3055,-0.30555 -0.2164,-1.73364 -1.1598,-3.17353 z M 1079.4928,206.75 c 0.3777,-4.12716 0.2401,-8.32684 -0.3195,-9.75 l -0.9831,-2.5 -1.5951,3.71788 c -1.8172,4.23561 -2.0903,10.98838 -0.5599,13.84786 1.8596,3.47465 2.7831,2.05476 3.4576,-5.31574 z m 61.0124,5.24154 c 0.3428,-0.55465 -0.4181,-1.42613 -1.691,-1.93661 l -2.3142,-0.92816 2.25,-0.0634 c 1.9225,-0.0542 2.2497,-0.60921 2.2476,-3.81339 0,-3.31664 -0.6088,-4.2404 -5.25,-7.9936 -5.7018,-4.61089 -9.094,-5.34622 -10.7124,-2.32214 -2.3215,4.33776 0.023,10.06574 4.1198,10.06574 2.3344,0 2.4849,-3.54253 0.2046,-4.81863 -2.2042,-1.23352 -0.8383,-3.18137 2.2308,-3.18137 2.8028,0 3.8977,1.91908 3.0414,5.3308 -1.1794,4.69902 -8.1939,5.22437 -10.5664,0.79135 -1.5515,-2.89889 -1.3032,-8.67987 0.4346,-10.12215 2.3631,-1.96123 1.8387,-2.79468 -3.4425,-5.47088 -4.56,-2.31073 -20.7881,-7.52834 -23.4194,-7.52972 -0.6587,-3.4e-4 -1.0951,1.51301 -1.036,3.5929 0.096,3.39004 0.4139,3.7202 5.6079,5.8312 10.6477,4.32753 15.3935,8.27147 20.4911,17.02857 l 2.8826,4.95206 6.2422,0.16535 c 3.4333,0.0909 6.5269,0.45001 6.8748,0.79793 0.8508,0.85071 1.0754,0.80392 1.8045,-0.37587 z M 1148,211.05576 c 0,-0.51933 -1.1108,-2.20683 -2.4684,-3.75 l -2.4684,-2.80576 -0.032,2.78222 c -0.028,2.44329 1.3473,3.79966 4.7184,4.65439 0.1375,0.0349 0.25,-0.36152 0.25,-0.88085 z M 1025.7999,208.25 c 0.5475,-1.5125 1.3147,-3.5375 1.7048,-4.5 0.3939,-0.97174 0.2653,-1.75 -0.2891,-1.75 -0.8214,0 -4.2156,6.86015 -4.2156,8.52024 0,1.62369 1.9679,0.0281 2.7999,-2.27024 z m 123.1708,-1 c -0.052,-1.3271 -6.0914,-7.46266 -6.7235,-6.83048 -0.3358,0.33574 0.9095,2.1787 2.7673,4.09546 3.531,3.64306 4.0045,3.97037 3.9562,2.73502 z m -122.7979,-9.75 c 1.0577,-1.96961 1.0443,-1.96922 -0.8794,0.0257 -1.0743,1.11412 -2.7519,3.36412 -3.728,5 l -1.7746,2.97433 2.654,-3 c 1.4598,-1.65 3.1374,-3.9 3.728,-5 z m 10.5679,-3.50298 c 7.6372,-6.72248 20.9958,-12.97181 31.2254,-14.60759 3.7923,-0.60642 6.7755,-2.43361 3.8429,-2.35381 -2.4021,0.0654 -12.6497,2.73847 -17.5089,4.56721 -8.7004,3.27444 -23.3001,12.96414 -23.3001,15.46412 0,1.61582 1.0636,1.04706 5.7407,-3.06993 z m 99.6863,0.52445 c -1.0599,-0.80182 -2.377,-1.46217 -2.927,-1.46743 -0.55,-0.005 0.1183,0.84965 1.4851,1.8998 1.3667,1.05016 2.6839,1.7105 2.927,1.46743 0.243,-0.24306 -0.4253,-1.09797 -1.4851,-1.8998 z m -8.2288,-6.09522 C 1121.7311,183.89656 1101.8633,177 1095.281,177 c -4.1207,0 -1.5783,1.68618 3.4398,2.28127 6.2342,0.73932 16.4969,4.14104 23.3323,7.73384 5.9451,3.12488 9.8827,4.02911 6.1451,1.41114 z M 1089.5,177 c -0.3399,-0.55 -1.2665,-1 -2.059,-1 -0.7926,0 -1.441,0.45 -1.441,1 0,0.55 0.9266,1 2.059,1 1.1325,0 1.7809,-0.45 1.441,-1 z m 65.624,357.55263 c -1.8456,-2.91555 -6.116,-8.17011 -9.4898,-11.67681 -12.4502,-12.9406 -21.1458,-24.83897 -30.0052,-41.0567 -2.0072,-3.67449 -5.5574,-8.32078 -7.8893,-10.3251 -4.1162,-3.53802 -4.4,-3.62229 -9.7397,-2.89195 -3.025,0.41374 -6.4,0.68646 -7.5,0.60604 -1.1,-0.0804 -8.6276,-0.27882 -16.728,-0.44088 -16.4986,-0.33008 -17.2559,-0.62687 -18.8217,-7.37652 -0.4964,-2.13989 -0.9133,-7.43617 -0.9264,-11.76951 -0.023,-7.53395 -0.172,-8.04278 -3.4085,-11.62518 -2.2377,-2.47681 -4.2878,-6.5362 -6.0497,-11.97883 -1.4657,-4.52784 -3.6061,-9.50545 -4.7565,-11.06135 -1.5601,-2.11025 -1.9476,-3.71576 -1.525,-6.31982 0.8832,-5.44213 -0.1467,-7.43633 -5.284,-10.23243 -2.6212,-1.42666 -5.2686,-3.69727 -5.883,-5.04581 -2.3042,-5.05716 -1.3687,-7.38601 7.7495,-19.29094 4.8766,-6.3671 9.8266,-13.3677 11,-15.55689 2.7035,-5.04423 2.8213,-2.77893 0.1298,2.49685 -2.2675,4.44482 -13.1665,20.34952 -16.2436,23.70405 -3.1404,3.42359 -1.0443,7.18794 6.3041,11.32119 l 5.943,3.34281 0,5.14591 c 0,5.64158 0.653,7.01211 2.5793,5.41341 0.9667,-0.80224 1.1371,-0.56574 0.7258,1.0071 -0.4499,1.72035 -0.1109,2.02025 2.0787,1.83904 1.4389,-0.11909 2.6162,-0.59493 2.6162,-1.05743 0,-0.4625 0.45,-0.5628 1,-0.22288 0.55,0.33992 1,-0.0835 1,-0.94098 0,-1.86204 1.1496,-2.00944 2.8,-0.35902 0.66,0.66 1.2069,0.7725 1.2153,0.25 0.01,-0.5225 0.4051,-0.33468 0.8816,0.41738 0.8494,1.34079 5.3467,2.41428 9.9022,2.36364 2.5115,-0.0279 2.5059,1.54323 -0.011,3.13093 -1.1204,0.70671 -3.1395,0.50539 -6.8053,-0.67856 -6.3724,-2.05804 -8.3853,-2.10818 -9.9296,-0.24731 -0.8847,1.06596 -0.9072,1.96801 -0.087,3.5 1.1102,2.07452 -0.2369,3.05233 -1.4658,1.06392 -0.3399,-0.55 -1.2422,-1 -2.0052,-1 -1.7694,0 0.7616,7.73167 5.5307,16.89522 2.8016,5.3831 3.2752,7.34307 3.3673,13.93449 0.1796,12.85054 4.1631,17.91211 12.6072,16.01918 1.925,-0.43152 10.7874,-0.50438 19.6942,-0.1619 l 16.1942,0.62269 4.9442,4.32507 c 3.4877,3.05097 6.305,6.95981 9.5635,13.26903 5.4121,10.47877 13.8214,22.1142 23.3534,32.31255 9.3931,10.04973 18.2421,22.1254 17.0714,23.29612 -0.1877,0.18764 -1.8512,-2.04428 -3.6969,-4.95982 z M 1039.1948,390.19837 c 0.4419,-2.33365 6.3189,-2.90796 7.1661,-0.70027 0.3389,0.88318 0.2354,1.37044 -0.23,1.08281 -0.4654,-0.28763 -2.2887,-0.10923 -4.0519,0.39644 -2.7539,0.78979 -3.1604,0.67999 -2.8842,-0.77898 z m 30.78,-31.21396 c -0.802,-0.49566 -2.5381,-0.63014 -3.8581,-0.29886 l -2.3998,0.60233 1.8571,-3.14394 c 1.2561,-2.1263 2.6286,-3.14394 4.2405,-3.14394 1.3108,0 3.8012,-0.62615 5.5344,-1.39145 1.7331,-0.7653 5.28,-1.94639 7.8821,-2.62465 4.9951,-1.30202 7.2365,-3.08154 6.5343,-5.18791 -0.4017,-1.20532 6.1353,-4.22873 7.0865,-3.27752 0.8918,0.89175 -7.0435,11.16354 -9.9509,12.88101 -3.3885,2.00161 -4.8932,1.50109 -2.8583,-0.95079 0.9152,-1.1028 0.1932,-0.93035 -2.3246,0.55519 -2.0087,1.18516 -4.1426,1.85176 -4.7419,1.48133 -1.3905,-0.85937 -5.9761,0.26131 -5.9761,1.46052 0,0.49919 0.7451,1.05312 1.6557,1.23095 1.424,0.27806 1.4543,0.4903 0.2165,1.51612 -0.9113,0.75521 -1.9742,0.86219 -2.8974,0.29161 z M 1079.5,353 c 0.3399,-0.55 -0.083,-1 -0.941,-1 -0.8574,0 -1.559,0.45 -1.559,1 0,0.55 0.4234,1 0.941,1 0.5175,0 1.2191,-0.45 1.559,-1 z m -122,-27 c -1.31874,-0.56668 -1.48906,-0.87815 -0.5,-0.9144 0.825,-0.0302 2.175,0.38124 3,0.9144 1.82797,1.18132 0.24909,1.18132 -2.5,0 z m 217.0992,-85.5 c 2.5374,-8.42519 -0.1531,-17.72945 -6.7261,-23.26023 -4.2733,-3.59574 -2.3063,-4.77619 3.979,-2.38796 4.9212,1.86992 5.1479,1.87613 5.1479,0.14101 0,-2.39068 5.5425,-6.99282 8.4217,-6.99282 1.2476,0 3.0438,0.85689 3.9916,1.90421 1.4669,1.62085 1.5285,2.21607 0.4145,4 -0.7199,1.15268 -1.8275,2.09579 -2.4614,2.09579 -1.7275,0 -2.5616,-3.05989 -1.2612,-4.62675 0.883,-1.06395 0.7903,-1.37325 -0.4113,-1.37325 -2.3549,0 -4.6939,2.83727 -4.6939,5.69387 0,2.12008 0.246,2.34687 1.4562,1.34248 1.5088,-1.25222 3.5438,-0.64646 3.5438,1.05489 0,0.53527 -0.9514,1.32516 -2.1142,1.75532 -1.9829,0.73349 -2.0095,0.88688 -0.4286,2.46777 0.9271,0.92712 2.3615,1.68567 3.1876,1.68567 3.1109,0 0.9098,3.49314 -2.403,3.81336 -1.783,0.17235 -3.2418,0.81191 -3.2418,1.42126 0,0.60934 -0.5974,1.81833 -1.3275,2.68664 -0.7301,0.86831 -1.842,3.38738 -2.471,5.59794 -0.6289,2.21056 -1.8105,4.91056 -2.6258,6 -1.2974,1.73382 -1.2945,1.35736 0.024,-3.0192 z m 116.4858,-25.59107 c -0.2758,-11.64793 8.3038,-22.50511 14.55,-18.41245 2.7657,1.8122 3.3115,6.50352 0.7566,6.50352 -1.2361,0 -1.4561,-0.60672 -0.9506,-2.6208 0.6179,-2.46196 0.4881,-2.57845 -2.1416,-1.92209 -5.2632,1.31368 -8.6599,6.0041 -10.8937,15.04289 -1.1851,4.79547 -1.2391,4.8531 -1.3207,1.40893 z"
       id="path3436"
       style="fill:#000000;fill-opacity:1" />
  </g>
</svg>
